<?xml version="1.0" encoding="UTF-8" standalone="no"?><svg xmlns="http://www.w3.org/2000/svg" xmlns:xlink="http://www.w3.org/1999/xlink" contentScriptType="application/ecmascript" contentStyleType="text/css" height="147px" preserveAspectRatio="none" style="width:279px;height:147px;" version="1.1" viewBox="0 0 279 147" width="279px" zoomAndPan="magnify"><defs><filter height="300%" id="fhcwa3r" width="300%" x="-1" y="-1"><feGaussianBlur result="blurOut" stdDeviation="2.0"/><feColorMatrix in="blurOut" result="blurOut2" type="matrix" values="0 0 0 0 0 0 0 0 0 0 0 0 0 0 0 0 0 0 .4 0"/><feOffset dx="4.0" dy="4.0" in="blurOut2" result="blurOut3"/><feBlend in="SourceGraphic" in2="blurOut3" mode="normal"/></filter></defs><g><!--entity src--><rect fill="#FEFECE" filter="url(#fhcwa3r)" height="36.2969" style="stroke: #000000; stroke-width: 1.5;" width="131" x="6" y="8"/><text fill="#000000" font-family="sans-serif" font-size="14" lengthAdjust="spacingAndGlyphs" textLength="111" x="16" y="30.9951">Langage source</text><!--entity compiler--><rect fill="#FEFECE" filter="url(#fhcwa3r)" height="36.2969" style="stroke: #000000; stroke-width: 1.5;" width="101" x="21" y="104"/><text fill="#000000" font-family="sans-serif" font-size="14" lengthAdjust="spacingAndGlyphs" textLength="81" x="31" y="126.9951">Compilation</text><!--entity dst--><rect fill="#FEFECE" filter="url(#fhcwa3r)" height="36.2969" style="stroke: #000000; stroke-width: 1.5;" width="115" x="157" y="104"/><text fill="#000000" font-family="sans-serif" font-size="14" lengthAdjust="spacingAndGlyphs" textLength="95" x="167" y="126.9951">Langage cible</text><path d="M71.5,44.241 C71.5,59.4791 71.5,81.8069 71.5,98.4576 " fill="none" style="stroke: #A80036; stroke-width: 1.0;"/><polygon fill="#A80036" points="71.5,103.8683,75.5,94.8683,71.5,98.8683,67.5,94.8683,71.5,103.8683" style="stroke: #A80036; stroke-width: 1.0;"/><path d="M122.053,122 C131.893,122 141.734,122 151.574,122 " fill="none" style="stroke: #A80036; stroke-width: 1.0;"/><polygon fill="#A80036" points="156.72,122,147.72,118,151.72,122,147.72,126,156.72,122" style="stroke: #A80036; stroke-width: 1.0;"/></g></svg>