<?xml version="1.0" encoding="UTF-8" standalone="no"?><svg xmlns="http://www.w3.org/2000/svg" xmlns:xlink="http://www.w3.org/1999/xlink" contentScriptType="application/ecmascript" contentStyleType="text/css" height="147px" preserveAspectRatio="none" style="width:514px;height:147px;" version="1.1" viewBox="0 0 514 147" width="514px" zoomAndPan="magnify"><defs><filter height="300%" id="f3i75fi" width="300%" x="-1" y="-1"><feGaussianBlur result="blurOut" stdDeviation="2.0"/><feColorMatrix in="blurOut" result="blurOut2" type="matrix" values="0 0 0 0 0 0 0 0 0 0 0 0 0 0 0 0 0 0 .4 0"/><feOffset dx="4.0" dy="4.0" in="blurOut2" result="blurOut3"/><feBlend in="SourceGraphic" in2="blurOut3" mode="normal"/></filter></defs><g><!--entity parser--><rect fill="#F8F8F8" filter="url(#f3i75fi)" height="36.2969" style="stroke: #000000; stroke-width: 1.5;" width="85" x="363.5" y="104"/><text fill="#000000" font-family="sans-serif" font-size="14" lengthAdjust="spacingAndGlyphs" textLength="65" x="373.5" y="126.9951">LR Parser</text><!--entity table--><rect fill="#F8F8F8" filter="url(#f3i75fi)" height="36.2969" style="stroke: #000000; stroke-width: 1.5;" width="95" x="358.5" y="8"/><text fill="#000000" font-family="sans-serif" font-size="14" lengthAdjust="spacingAndGlyphs" textLength="75" x="368.5" y="30.9951">LALR Table</text><!--entity pp--><rect fill="#F8F8F8" filter="url(#f3i75fi)" height="36.2969" style="stroke: #000000; stroke-width: 1.5;" width="158" x="165" y="8"/><text fill="#000000" font-family="sans-serif" font-size="14" lengthAdjust="spacingAndGlyphs" textLength="138" x="175" y="30.9951">Platinum Parsing CLI</text><!--entity ebnf--><rect fill="#F8F8F8" filter="url(#f3i75fi)" height="36.2969" style="stroke: #000000; stroke-width: 1.5;" width="124" x="6" y="8"/><text fill="#000000" font-family="sans-serif" font-size="14" lengthAdjust="spacingAndGlyphs" textLength="104" x="16" y="30.9951">EBNF Grammar</text><!--entity tokens--><ellipse cx="304" cy="114" fill="#F8F8F8" filter="url(#f3i75fi)" rx="8" ry="8" style="stroke: #383838; stroke-width: 2.0;"/><text fill="#000000" font-family="sans-serif" font-size="14" lengthAdjust="spacingAndGlyphs" textLength="48" x="280" y="135.9951">tokens</text><!--entity AST--><ellipse cx="497" cy="114" fill="#F8F8F8" filter="url(#f3i75fi)" rx="8" ry="8" style="stroke: #383838; stroke-width: 2.0;"/><text fill="#000000" font-family="sans-serif" font-size="14" lengthAdjust="spacingAndGlyphs" textLength="27" x="483.5" y="135.9951">AST</text><path d="M328.305,122 C338.212,122 348.119,122 358.026,122 " fill="none" style="stroke: #383838; stroke-width: 1.0;"/><polygon fill="#383838" points="363.207,122,354.207,118,358.207,122,354.207,126,363.207,122" style="stroke: #383838; stroke-width: 1.0;"/><path d="M448.656,122 C458.519,122 468.382,122 478.246,122 " fill="none" style="stroke: #383838; stroke-width: 1.0;"/><polygon fill="#383838" points="483.403,122,474.403,118,478.403,122,474.403,126,483.403,122" style="stroke: #383838; stroke-width: 1.0;"/><path d="M406,49.6621 C406,66.3399 406,88.6642 406,103.8683 " fill="none" style="stroke: #383838; stroke-width: 1.0;"/><polygon fill="#383838" points="406,44.241,402,53.241,406,49.241,410,53.241,406,44.241" style="stroke: #383838; stroke-width: 1.0;"/><path d="M130.219,26 C140.059,26 149.9,26 159.74,26 " fill="none" style="stroke: #383838; stroke-width: 1.0;"/><polygon fill="#383838" points="164.886,26,155.886,22,159.886,26,155.886,30,164.886,26" style="stroke: #383838; stroke-width: 1.0;"/><path d="M323.102,26 C333.121,26 343.14,26 353.159,26 " fill="none" style="stroke: #383838; stroke-width: 1.0;"/><polygon fill="#383838" points="358.398,26,349.398,22,353.398,26,349.398,30,358.398,26" style="stroke: #383838; stroke-width: 1.0;"/></g></svg>