<?xml version="1.0" encoding="UTF-8" standalone="no"?><svg xmlns="http://www.w3.org/2000/svg" xmlns:xlink="http://www.w3.org/1999/xlink" contentScriptType="application/ecmascript" contentStyleType="text/css" height="260px" preserveAspectRatio="none" style="width:285px;height:260px;" version="1.1" viewBox="0 0 285 260" width="285px" zoomAndPan="magnify"><defs><filter height="300%" id="f7dw7ui" width="300%" x="-1" y="-1"><feGaussianBlur result="blurOut" stdDeviation="2.0"/><feColorMatrix in="blurOut" result="blurOut2" type="matrix" values="0 0 0 0 0 0 0 0 0 0 0 0 0 0 0 0 0 0 .4 0"/><feOffset dx="4.0" dy="4.0" in="blurOut2" result="blurOut3"/><feBlend in="SourceGraphic" in2="blurOut3" mode="normal"/></filter></defs><g><!--entity grammar--><rect fill="#FEFECE" filter="url(#f7dw7ui)" height="52.5938" style="stroke: #000000; stroke-width: 1.5;" width="95" x="25.5" y="8"/><text fill="#000000" font-family="sans-serif" font-size="14" lengthAdjust="spacingAndGlyphs" textLength="75" x="35.5" y="30.9951">Grammaire</text><text fill="#000000" font-family="sans-serif" font-size="14" lengthAdjust="spacingAndGlyphs" textLength="48" x="49" y="47.292">source</text><!--entity pp--><rect fill="#FEFECE" filter="url(#f7dw7ui)" height="36.2969" style="stroke: #000000; stroke-width: 1.5;" width="134" x="6" y="121"/><text fill="#000000" font-family="sans-serif" font-size="14" lengthAdjust="spacingAndGlyphs" textLength="114" x="16" y="143.9951">Platinum Parsing</text><!--entity compiler--><rect fill="#FEFECE" filter="url(#f7dw7ui)" height="36.2969" style="stroke: #000000; stroke-width: 1.5;" width="103" x="175.5" y="121"/><text fill="#000000" font-family="sans-serif" font-size="14" lengthAdjust="spacingAndGlyphs" textLength="83" x="185.5" y="143.9951">Compilateur</text><!--entity src--><rect fill="#FEFECE" filter="url(#f7dw7ui)" height="36.2969" style="stroke: #000000; stroke-width: 1.5;" width="69" x="192.5" y="16.5"/><text fill="#000000" font-family="sans-serif" font-size="14" lengthAdjust="spacingAndGlyphs" textLength="49" x="202.5" y="39.4951">Source</text><!--entity dst--><rect fill="#FEFECE" filter="url(#f7dw7ui)" height="36.2969" style="stroke: #000000; stroke-width: 1.5;" width="54" x="200" y="217"/><text fill="#000000" font-family="sans-serif" font-size="14" lengthAdjust="spacingAndGlyphs" textLength="34" x="210" y="239.9951">Cible</text><path d="M73,61.101 C73,77.829 73,99.469 73,115.53 " fill="none" style="stroke: #A80036; stroke-width: 1.0;"/><polygon fill="#A80036" points="73,120.747,77,111.747,73,115.747,69,111.747,73,120.747" style="stroke: #A80036; stroke-width: 1.0;"/><path d="M140.074,139 C150.098,139 160.122,139 170.146,139 " fill="none" style="stroke: #A80036; stroke-width: 1.0;"/><polygon fill="#A80036" points="175.388,139,166.388,135,170.388,139,166.388,143,175.388,139" style="stroke: #A80036; stroke-width: 1.0;"/><path d="M227,52.888 C227,70.221 227,96.907 227,115.77 " fill="none" style="stroke: #A80036; stroke-width: 1.0;"/><polygon fill="#A80036" points="227,120.869,231,111.869,227,115.869,223,111.869,227,120.869" style="stroke: #A80036; stroke-width: 1.0;"/><path d="M227,157.241 C227,172.4791 227,194.8069 227,211.4576 " fill="none" style="stroke: #A80036; stroke-width: 1.0;"/><polygon fill="#A80036" points="227,216.8683,231,207.8683,227,211.8683,223,207.8683,227,216.8683" style="stroke: #A80036; stroke-width: 1.0;"/></g></svg>