<?xml version="1.0" encoding="UTF-8" standalone="no"?><svg xmlns="http://www.w3.org/2000/svg" xmlns:xlink="http://www.w3.org/1999/xlink" contentScriptType="application/ecmascript" contentStyleType="text/css" height="339px" preserveAspectRatio="none" style="width:366px;height:339px;" version="1.1" viewBox="0 0 366 339" width="366px" zoomAndPan="magnify"><defs><filter height="300%" id="ftj1m6a" width="300%" x="-1" y="-1"><feGaussianBlur result="blurOut" stdDeviation="2.0"/><feColorMatrix in="blurOut" result="blurOut2" type="matrix" values="0 0 0 0 0 0 0 0 0 0 0 0 0 0 0 0 0 0 .4 0"/><feOffset dx="4.0" dy="4.0" in="blurOut2" result="blurOut3"/><feBlend in="SourceGraphic" in2="blurOut3" mode="normal"/></filter></defs><g><!--entity ide--><rect fill="#F8F8F8" filter="url(#ftj1m6a)" height="36.2969" style="stroke: #000000; stroke-width: 1.5;" width="260" x="75" y="8"/><text fill="#000000" font-family="sans-serif" font-size="14" lengthAdjust="spacingAndGlyphs" textLength="240" x="85" y="30.9951">Environnement de développement</text><!--entity cli--><rect fill="#F8F8F8" filter="url(#ftj1m6a)" height="36.2969" style="stroke: #000000; stroke-width: 1.5;" width="243" x="83.5" y="104"/><text fill="#000000" font-family="sans-serif" font-size="14" lengthAdjust="spacingAndGlyphs" textLength="223" x="93.5" y="126.9951">Interface en ligne de commande</text><!--entity fw--><rect fill="#F8F8F8" filter="url(#ftj1m6a)" height="36.2969" style="stroke: #000000; stroke-width: 1.5;" width="96" x="157" y="200"/><text fill="#000000" font-family="sans-serif" font-size="14" lengthAdjust="spacingAndGlyphs" textLength="76" x="167" y="222.9951">Framework</text><!--entity b--><rect fill="#F8F8F8" filter="url(#ftj1m6a)" height="36.2969" style="stroke: #000000; stroke-width: 1.5;" width="68" x="6" y="296"/><text fill="#000000" font-family="sans-serif" font-size="14" lengthAdjust="spacingAndGlyphs" textLength="48" x="16" y="318.9951">Builder</text><!--entity g--><rect fill="#F8F8F8" filter="url(#ftj1m6a)" height="36.2969" style="stroke: #000000; stroke-width: 1.5;" width="83" x="109.5" y="296"/><text fill="#000000" font-family="sans-serif" font-size="14" lengthAdjust="spacingAndGlyphs" textLength="63" x="119.5" y="318.9951">Grammar</text><!--entity p--><rect fill="#F8F8F8" filter="url(#ftj1m6a)" height="36.2969" style="stroke: #000000; stroke-width: 1.5;" width="64" x="228" y="296"/><text fill="#000000" font-family="sans-serif" font-size="14" lengthAdjust="spacingAndGlyphs" textLength="44" x="238" y="318.9951">Parser</text><!--entity o--><rect fill="#F8F8F8" filter="url(#ftj1m6a)" height="36.2969" style="stroke: #000000; stroke-width: 1.5;" width="32" x="327" y="296"/><text fill="#000000" font-family="sans-serif" font-size="14" lengthAdjust="spacingAndGlyphs" textLength="12" x="337" y="318.9951">...</text><path d="M205,44.241 C205,59.479 205,81.807 205,98.458 " fill="none" style="stroke: #383838; stroke-width: 1.0;"/><polygon fill="#383838" points="205,103.868,209,94.868,205,98.868,201,94.868,205,103.868" style="stroke: #383838; stroke-width: 1.0;"/><path d="M205,140.241 C205,155.479 205,177.807 205,194.458 " fill="none" style="stroke: #383838; stroke-width: 1.0;"/><polygon fill="#383838" points="205,199.868,209,190.868,205,194.868,201,190.868,205,199.868" style="stroke: #383838; stroke-width: 1.0;"/><path d="M175.12,236.0227 C145.309,253.0057 99.7666,278.9511 69.9363,295.9454 " fill="none" style="stroke: #383838; stroke-width: 1.0;"/><path d="M195.096,236.241 C185.352,253.2017 170.563,278.9455 160.842,295.8683 " fill="none" style="stroke: #383838; stroke-width: 1.0;"/><path d="M215.088,236.241 C225.012,253.2017 240.074,278.9455 249.976,295.8683 " fill="none" style="stroke: #383838; stroke-width: 1.0;"/><path d="M229.991,236.0227 C258.108,255.1749 302.958,285.7251 326.824,301.9818 " fill="none" style="stroke: #383838; stroke-width: 1.0;"/></g></svg>