<?xml version="1.0" encoding="UTF-8" standalone="no"?><svg xmlns="http://www.w3.org/2000/svg" xmlns:xlink="http://www.w3.org/1999/xlink" contentScriptType="application/ecmascript" contentStyleType="text/css" height="339px" preserveAspectRatio="none" style="width:390px;height:339px;" version="1.1" viewBox="0 0 390 339" width="390px" zoomAndPan="magnify"><defs><filter height="300%" id="fcg2xhr" width="300%" x="-1" y="-1"><feGaussianBlur result="blurOut" stdDeviation="2.0"/><feColorMatrix in="blurOut" result="blurOut2" type="matrix" values="0 0 0 0 0 0 0 0 0 0 0 0 0 0 0 0 0 0 .4 0"/><feOffset dx="4.0" dy="4.0" in="blurOut2" result="blurOut3"/><feBlend in="SourceGraphic" in2="blurOut3" mode="normal"/></filter></defs><g><!--entity ide--><rect fill="#FFFF00" filter="url(#fcg2xhr)" height="36.2969" style="stroke: #000000; stroke-width: 1.5;" width="260" x="91" y="8"/><text fill="#000000" font-family="sans-serif" font-size="14" lengthAdjust="spacingAndGlyphs" textLength="240" x="101" y="30.9951">Environnement de développement</text><!--entity cli--><rect fill="#FFFF00" filter="url(#fcg2xhr)" height="36.2969" style="stroke: #000000; stroke-width: 1.5;" width="243" x="99.5" y="104"/><text fill="#000000" font-family="sans-serif" font-size="14" lengthAdjust="spacingAndGlyphs" textLength="223" x="109.5" y="126.9951">Interface en ligne de commande</text><!--entity fw--><rect fill="#FFFF00" filter="url(#fcg2xhr)" height="36.2969" style="stroke: #000000; stroke-width: 1.5;" width="96" x="173" y="200"/><text fill="#000000" font-family="sans-serif" font-size="14" lengthAdjust="spacingAndGlyphs" textLength="76" x="183" y="222.9951">Framework</text><!--entity b--><rect fill="#FEFECE" filter="url(#fcg2xhr)" height="36.2969" style="stroke: #000000; stroke-width: 1.5;" width="76" x="6" y="296"/><text fill="#000000" font-family="sans-serif" font-size="14" lengthAdjust="spacingAndGlyphs" textLength="56" x="16" y="318.9951">Builders</text><!--entity g--><rect fill="#FEFECE" filter="url(#fcg2xhr)" height="36.2969" style="stroke: #000000; stroke-width: 1.5;" width="91" x="117.5" y="296"/><text fill="#000000" font-family="sans-serif" font-size="14" lengthAdjust="spacingAndGlyphs" textLength="71" x="127.5" y="318.9951">Grammars</text><!--entity p--><rect fill="#FEFECE" filter="url(#fcg2xhr)" height="36.2969" style="stroke: #000000; stroke-width: 1.5;" width="72" x="244" y="296"/><text fill="#000000" font-family="sans-serif" font-size="14" lengthAdjust="spacingAndGlyphs" textLength="52" x="254" y="318.9951">Parsers</text><!--entity o--><rect fill="#FEFECE" filter="url(#fcg2xhr)" height="36.2969" style="stroke: #000000; stroke-width: 1.5;" width="32" x="351" y="296"/><text fill="#000000" font-family="sans-serif" font-size="14" lengthAdjust="spacingAndGlyphs" textLength="12" x="361" y="318.9951">...</text><path d="M221,44.241 C221,59.479 221,81.807 221,98.458 " fill="none" style="stroke: #A80036; stroke-width: 1.0;"/><polygon fill="#A80036" points="221,103.868,225,94.868,221,98.868,217,94.868,221,103.868" style="stroke: #A80036; stroke-width: 1.0;"/><path d="M221,140.241 C221,155.479 221,177.807 221,194.458 " fill="none" style="stroke: #A80036; stroke-width: 1.0;"/><polygon fill="#A80036" points="221,199.868,225,190.868,221,194.868,217,190.868,221,199.868" style="stroke: #A80036; stroke-width: 1.0;"/><path d="M188.947,236.0227 C156.968,253.0057 108.113,278.9511 76.1135,295.9454 " fill="none" style="stroke: #A80036; stroke-width: 1.0;"/><path d="M210.362,236.241 C199.897,253.2017 184.012,278.9455 173.571,295.8683 " fill="none" style="stroke: #A80036; stroke-width: 1.0;"/><path d="M231.822,236.241 C242.467,253.2017 258.625,278.9455 269.247,295.8683 " fill="none" style="stroke: #A80036; stroke-width: 1.0;"/><path d="M247.439,236.0227 C277.515,255.3865 325.688,286.4017 350.715,302.5154 " fill="none" style="stroke: #A80036; stroke-width: 1.0;"/></g></svg>