<?xml version="1.0" encoding="UTF-8" standalone="no"?><svg xmlns="http://www.w3.org/2000/svg" xmlns:xlink="http://www.w3.org/1999/xlink" contentScriptType="application/ecmascript" contentStyleType="text/css" height="795px" preserveAspectRatio="none" style="width:756px;height:795px;" version="1.1" viewBox="0 0 756 795" width="756px" zoomAndPan="magnify"><defs><filter height="300%" id="fqrqmsw" width="300%" x="-1" y="-1"><feGaussianBlur result="blurOut" stdDeviation="2.0"/><feColorMatrix in="blurOut" result="blurOut2" type="matrix" values="0 0 0 0 0 0 0 0 0 0 0 0 0 0 0 0 0 0 .4 0"/><feOffset dx="4.0" dy="4.0" in="blurOut2" result="blurOut3"/><feBlend in="SourceGraphic" in2="blurOut3" mode="normal"/></filter></defs><g><!--entity grammar--><rect fill="#F8F8F8" filter="url(#fqrqmsw)" height="36.2969" style="stroke: #000000; stroke-width: 1.5;" width="95" x="35.5" y="8"/><text fill="#000000" font-family="sans-serif" font-size="14" lengthAdjust="spacingAndGlyphs" textLength="75" x="45.5" y="30.9951">Grammaire</text><!--entity ast--><rect fill="#F8F8F8" filter="url(#fqrqmsw)" height="36.2969" style="stroke: #000000; stroke-width: 1.5;" width="47" x="214.5" y="8"/><text fill="#000000" font-family="sans-serif" font-size="14" lengthAdjust="spacingAndGlyphs" textLength="27" x="224.5" y="30.9951">AST</text><!--entity rules--><rect fill="#F8F8F8" filter="url(#fqrqmsw)" height="36.2969" style="stroke: #000000; stroke-width: 1.5;" width="68" x="204" y="121"/><text fill="#000000" font-family="sans-serif" font-size="14" lengthAdjust="spacingAndGlyphs" textLength="48" x="214" y="143.9951">Règles</text><!--entity first--><rect fill="#F8F8F8" filter="url(#fqrqmsw)" height="36.2969" style="stroke: #000000; stroke-width: 1.5;" width="82" x="6" y="121"/><text fill="#000000" font-family="sans-serif" font-size="14" lengthAdjust="spacingAndGlyphs" textLength="62" x="16" y="143.9951">PREMIER</text><!--entity lr1--><rect fill="#F8F8F8" filter="url(#fqrqmsw)" height="36.2969" style="stroke: #000000; stroke-width: 1.5;" width="128" x="94" y="234"/><text fill="#000000" font-family="sans-serif" font-size="14" lengthAdjust="spacingAndGlyphs" textLength="108" x="104" y="256.9951">Collection LR(1)</text><!--entity lalr--><rect fill="#F8F8F8" filter="url(#fqrqmsw)" height="36.2969" style="stroke: #000000; stroke-width: 1.5;" width="125" x="95.5" y="347"/><text fill="#000000" font-family="sans-serif" font-size="14" lengthAdjust="spacingAndGlyphs" textLength="105" x="105.5" y="369.9951">Collection LALR</text><!--entity table--><rect fill="#F8F8F8" filter="url(#fqrqmsw)" height="36.2969" style="stroke: #000000; stroke-width: 1.5;" width="95" x="336.5" y="347"/><text fill="#000000" font-family="sans-serif" font-size="14" lengthAdjust="spacingAndGlyphs" textLength="75" x="346.5" y="369.9951">Table LALR</text><!--entity parser--><rect fill="#F8F8F8" filter="url(#fqrqmsw)" height="36.2969" style="stroke: #000000; stroke-width: 1.5;" width="109" x="510.5" y="646.5"/><text fill="#000000" font-family="sans-serif" font-size="14" font-style="italic" lengthAdjust="spacingAndGlyphs" textLength="42" x="520.5" y="669.4951">Parser</text><text fill="#000000" font-family="sans-serif" font-size="14" lengthAdjust="spacingAndGlyphs" textLength="43" x="566.5" y="669.4951">LR C#</text><!--entity stack--><rect fill="#F8F8F8" filter="url(#fqrqmsw)" height="36.2969" style="stroke: #000000; stroke-width: 1.5;" width="98" x="516" y="752"/><text fill="#000000" font-family="sans-serif" font-size="14" font-style="italic" lengthAdjust="spacingAndGlyphs" textLength="78" x="526" y="774.9951">State Stack</text><!--entity context--><rect fill="#F8F8F8" filter="url(#fqrqmsw)" height="36.2969" style="stroke: #000000; stroke-width: 1.5;" width="83" x="342.5" y="444"/><text fill="#000000" font-family="sans-serif" font-size="14" lengthAdjust="spacingAndGlyphs" textLength="63" x="352.5" y="466.9951">Contexte</text><!--entity compile--><rect fill="#F8F8F8" filter="url(#fqrqmsw)" height="36.2969" style="stroke: #000000; stroke-width: 1.5;" width="101" x="333.5" y="541"/><text fill="#000000" font-family="sans-serif" font-size="14" lengthAdjust="spacingAndGlyphs" textLength="81" x="343.5" y="563.9951">Compilation</text><!--entity template--><rect fill="#F8F8F8" filter="url(#fqrqmsw)" height="36.2969" style="stroke: #000000; stroke-width: 1.5;" width="111" x="152.5" y="541"/><text fill="#000000" font-family="sans-serif" font-size="14" font-style="italic" lengthAdjust="spacingAndGlyphs" textLength="65" x="162.5" y="563.9951">Template</text><text fill="#000000" font-family="sans-serif" font-size="14" lengthAdjust="spacingAndGlyphs" textLength="22" x="231.5" y="563.9951">C#</text><!--entity input--><rect fill="#F8F8F8" filter="url(#fqrqmsw)" height="52.5938" style="stroke: #000000; stroke-width: 1.5;" width="103" x="337.5" y="638"/><text fill="#000000" font-family="sans-serif" font-size="14" lengthAdjust="spacingAndGlyphs" textLength="46" x="366" y="660.9951">Entrée</text><text fill="#000000" font-family="sans-serif" font-size="14" font-weight="bold" lengthAdjust="spacingAndGlyphs" textLength="83" x="347.5" y="677.292">2+3*(1+3)</text><!--entity output--><rect fill="#F8F8F8" filter="url(#fqrqmsw)" height="52.5938" style="stroke: #000000; stroke-width: 1.5;" width="60" x="689" y="638"/><text fill="#000000" font-family="sans-serif" font-size="14" lengthAdjust="spacingAndGlyphs" textLength="40" x="699" y="660.9951">Sortie</text><text fill="#000000" font-family="sans-serif" font-size="14" font-weight="bold" lengthAdjust="spacingAndGlyphs" textLength="20" x="709" y="677.292">14</text><!--entity table2--><rect fill="#F8F8F8" filter="url(#fqrqmsw)" height="36.2969" style="stroke: #000000; stroke-width: 1.5;" width="121" x="504.5" y="541"/><text fill="#000000" font-family="sans-serif" font-size="14" lengthAdjust="spacingAndGlyphs" textLength="101" x="514.5" y="563.9951">Table LALR C#</text><path d="M130.77,26 C156.463,26 187.294,26 209.289,26 " fill="none" style="stroke: #383838; stroke-width: 1.0;"/><polygon fill="#383838" points="214.401,26,205.401,22,209.401,26,205.401,30,214.401,26" style="stroke: #383838; stroke-width: 1.0;"/><text fill="#000000" font-family="sans-serif" font-size="13" font-style="italic" lengthAdjust="spacingAndGlyphs" textLength="47" x="149" y="19.0669">parsing</text><path d="M238,44.344 C238,63.568 238,94.63 238,115.661 " fill="none" style="stroke: #383838; stroke-width: 1.0;"/><polygon fill="#383838" points="238,120.778,242,111.778,238,115.778,234,111.778,238,120.778" style="stroke: #383838; stroke-width: 1.0;"/><text fill="#000000" font-family="sans-serif" font-size="13" font-style="italic" lengthAdjust="spacingAndGlyphs" textLength="95" x="239" y="87.0669">transformation</text><path d="M93.8142,139 C127.903,139 173.29,139 203.965,139 " fill="none" style="stroke: #383838; stroke-width: 1.0;"/><polygon fill="#383838" points="88.4442,139,97.4442,143,93.4442,139,97.4442,135,88.4442,139" style="stroke: #383838; stroke-width: 1.0;"/><text fill="#000000" font-family="sans-serif" font-size="13" font-style="italic" lengthAdjust="spacingAndGlyphs" textLength="79" x="106.5" y="132.0669">construction</text><path d="M225.5,157.344 C211.41,176.894 188.497,208.686 173.336,229.721 " fill="none" style="stroke: #383838; stroke-width: 1.0;"/><polygon fill="#383838" points="170.412,233.778,178.9191,228.8152,173.3353,229.7216,172.4289,224.1379,170.412,233.778" style="stroke: #383838; stroke-width: 1.0;"/><text fill="#000000" font-family="sans-serif" font-size="13" font-style="italic" lengthAdjust="spacingAndGlyphs" textLength="69" x="204" y="200.0669">génération</text><path d="M64.3438,157.344 C83.975,176.975 115.951,208.951 136.984,229.984 " fill="none" style="stroke: #383838; stroke-width: 1.0;"/><polygon fill="#383838" points="140.778,233.778,137.2425,224.5856,137.2425,230.2425,131.5856,230.2425,140.778,233.778" style="stroke: #383838; stroke-width: 1.0;"/><path d="M158,270.344 C158,289.568 158,320.63 158,341.661 " fill="none" style="stroke: #383838; stroke-width: 1.0;"/><polygon fill="#383838" points="158,346.778,162,337.778,158,341.778,154,337.778,158,346.778" style="stroke: #383838; stroke-width: 1.0;"/><text fill="#000000" font-family="sans-serif" font-size="13" font-style="italic" lengthAdjust="spacingAndGlyphs" textLength="38" x="159" y="313.0669">fusion</text><path d="M220.653,365 C255.373,365 298.063,365 331.093,365 " fill="none" style="stroke: #383838; stroke-width: 1.0;"/><polygon fill="#383838" points="336.309,365,327.309,361,331.309,365,327.309,369,336.309,365" style="stroke: #383838; stroke-width: 1.0;"/><text fill="#000000" font-family="sans-serif" font-size="13" font-style="italic" lengthAdjust="spacingAndGlyphs" textLength="79" x="239" y="358.0669">construction</text><path d="M384,388.465 C384,405.365 384,428.187 384,443.686 " fill="none" style="stroke: #383838; stroke-width: 1.0;"/><polygon fill="#383838" points="384,383.424,380,392.424,384,388.424,388,392.424,384,383.424" style="stroke: #383838; stroke-width: 1.0;"/><path d="M384,480.424 C384,495.959 384,518.783 384,535.655 " fill="none" style="stroke: #383838; stroke-width: 1.0;"/><polygon fill="#383838" points="384,540.686,388,531.686,384,535.686,380,531.686,384,540.686" style="stroke: #383838; stroke-width: 1.0;"/><path d="M263.688,559 C285.152,559 306.616,559 328.081,559 " fill="none" style="stroke: #383838; stroke-width: 1.0;"/><polygon fill="#383838" points="333.243,559,324.243,555,328.243,559,324.243,563,333.243,559" style="stroke: #383838; stroke-width: 1.0;"/><path d="M434.553,559 C456.096,559 477.638,559 499.181,559 " fill="none" style="stroke: #383838; stroke-width: 1.0;"/><polygon fill="#383838" points="504.362,559,495.362,555,499.362,559,495.362,563,504.362,559" style="stroke: #383838; stroke-width: 1.0;"/><path d="M565,582.28 C565,601.497 565,628.845 565,646.384 " fill="none" style="stroke: #383838; stroke-width: 1.0;"/><polygon fill="#383838" points="565,577.091,561,586.091,565,582.091,569,586.091,565,577.091" style="stroke: #383838; stroke-width: 1.0;"/><path d="M440.562,664.5 C462.013,664.5 483.463,664.5 504.914,664.5 " fill="none" style="stroke: #383838; stroke-width: 1.0;"/><polygon fill="#383838" points="510.073,664.5,501.073,660.5,505.073,664.5,501.073,668.5,510.073,664.5" style="stroke: #383838; stroke-width: 1.0;"/><path d="M619.742,664.5 C641.04,664.5 662.338,664.5 683.635,664.5 " fill="none" style="stroke: #383838; stroke-width: 1.0;"/><polygon fill="#383838" points="688.757,664.5,679.757,660.5,683.757,664.5,679.757,668.5,688.757,664.5" style="stroke: #383838; stroke-width: 1.0;"/><path d="M565,682.591 C565,700.1198 565,727.4674 565,746.6917 " fill="none" style="stroke: #383838; stroke-width: 1.0;"/><polygon fill="#383838" points="565,751.8837,569,742.8837,565,746.8837,561,742.8837,565,751.8837" style="stroke: #383838; stroke-width: 1.0;"/></g></svg>