<?xml version="1.0" encoding="UTF-8" standalone="no"?><svg xmlns="http://www.w3.org/2000/svg" xmlns:xlink="http://www.w3.org/1999/xlink" contentScriptType="application/ecmascript" contentStyleType="text/css" height="259px" preserveAspectRatio="none" style="width:557px;height:259px;" version="1.1" viewBox="0 0 557 259" width="557px" zoomAndPan="magnify"><defs><filter height="300%" id="fc8h4t5" width="300%" x="-1" y="-1"><feGaussianBlur result="blurOut" stdDeviation="2.0"/><feColorMatrix in="blurOut" result="blurOut2" type="matrix" values="0 0 0 0 0 0 0 0 0 0 0 0 0 0 0 0 0 0 .4 0"/><feOffset dx="4.0" dy="4.0" in="blurOut2" result="blurOut3"/><feBlend in="SourceGraphic" in2="blurOut3" mode="normal"/></filter></defs><g><!--entity parser--><rect fill="#FEFECE" filter="url(#fc8h4t5)" height="52.5938" style="stroke: #000000; stroke-width: 1.5;" width="165" x="327" y="200"/><text fill="#000000" font-family="sans-serif" font-size="14" lengthAdjust="spacingAndGlyphs" textLength="145" x="337" y="222.9951">Analyseur syntaxique</text><text fill="#000000" font-family="sans-serif" font-size="14" font-style="italic" lengthAdjust="spacingAndGlyphs" textLength="64" x="377.5" y="239.292">Parser LR</text><!--entity lexer--><rect fill="#FEFECE" filter="url(#fc8h4t5)" height="52.5938" style="stroke: #000000; stroke-width: 1.5;" width="132" x="76.5" y="200"/><text fill="#000000" font-family="sans-serif" font-size="14" lengthAdjust="spacingAndGlyphs" textLength="112" x="86.5" y="222.9951">Analyseur lexical</text><text fill="#000000" font-family="sans-serif" font-size="14" font-style="italic" lengthAdjust="spacingAndGlyphs" textLength="39" x="123" y="239.292">Lexer</text><!--entity table--><rect fill="#FFFF00" filter="url(#fc8h4t5)" height="36.2969" style="stroke: #000000; stroke-width: 1.5;" width="95" x="322" y="104"/><text fill="#000000" font-family="sans-serif" font-size="14" lengthAdjust="spacingAndGlyphs" textLength="75" x="332" y="126.9951">Table LALR</text><!--entity afd--><rect fill="#FFFF00" filter="url(#fc8h4t5)" height="36.2969" style="stroke: #000000; stroke-width: 1.5;" width="48" x="158.5" y="104"/><text fill="#000000" font-family="sans-serif" font-size="14" lengthAdjust="spacingAndGlyphs" textLength="28" x="168.5" y="126.9951">AFD</text><!--entity pp--><rect fill="#FEFECE" filter="url(#fc8h4t5)" height="36.2969" style="stroke: #000000; stroke-width: 1.5;" width="134" x="209.5" y="8"/><text fill="#000000" font-family="sans-serif" font-size="14" lengthAdjust="spacingAndGlyphs" textLength="114" x="219.5" y="30.9951">Platinum Parsing</text><!--entity ebnf--><rect fill="#FEFECE" filter="url(#fc8h4t5)" height="36.2969" style="stroke: #000000; stroke-width: 1.5;" width="136" x="38.5" y="8"/><text fill="#000000" font-family="sans-serif" font-size="14" lengthAdjust="spacingAndGlyphs" textLength="116" x="48.5" y="30.9951">Grammaire EBNF</text><!--entity input--><ellipse cx="23.5" cy="218.5" fill="#FEFECE" filter="url(#fc8h4t5)" rx="8" ry="8" style="stroke: #A80036; stroke-width: 2.0;"/><text fill="#000000" font-family="sans-serif" font-size="14" lengthAdjust="spacingAndGlyphs" textLength="35" x="6" y="240.4951">input</text><!--entity tokens--><ellipse cx="267.5" cy="218.5" fill="#FEFECE" filter="url(#fc8h4t5)" rx="8" ry="8" style="stroke: #A80036; stroke-width: 2.0;"/><text fill="#000000" font-family="sans-serif" font-size="14" lengthAdjust="spacingAndGlyphs" textLength="48" x="243.5" y="240.4951">tokens</text><!--entity AST--><ellipse cx="540.5" cy="218.5" fill="#FEFECE" filter="url(#fc8h4t5)" rx="8" ry="8" style="stroke: #A80036; stroke-width: 2.0;"/><text fill="#000000" font-family="sans-serif" font-size="14" lengthAdjust="spacingAndGlyphs" textLength="27" x="527" y="240.4951">AST</text><path d="M41.1641,226.5 C51.1643,226.5 61.1645,226.5 71.1647,226.5 " fill="none" style="stroke: #A80036; stroke-width: 1.0;"/><polygon fill="#A80036" points="76.3941,226.5,67.3941,222.5,71.3941,226.5,67.3941,230.5,76.3941,226.5" style="stroke: #A80036; stroke-width: 1.0;"/><path d="M208.906,226.5 C218.652,226.5 228.397,226.5 238.142,226.5 " fill="none" style="stroke: #A80036; stroke-width: 1.0;"/><polygon fill="#A80036" points="243.239,226.5,234.239,222.5,238.239,226.5,234.239,230.5,243.239,226.5" style="stroke: #A80036; stroke-width: 1.0;"/><path d="M291.629,226.5 C301.562,226.5 311.495,226.5 321.428,226.5 " fill="none" style="stroke: #A80036; stroke-width: 1.0;"/><polygon fill="#A80036" points="326.622,226.5,317.622,222.5,321.622,226.5,317.622,230.5,326.622,226.5" style="stroke: #A80036; stroke-width: 1.0;"/><path d="M492.143,226.5 C502.008,226.5 511.874,226.5 521.74,226.5 " fill="none" style="stroke: #A80036; stroke-width: 1.0;"/><polygon fill="#A80036" points="526.899,226.5,517.899,222.5,521.899,226.5,517.899,230.5,526.899,226.5" style="stroke: #A80036; stroke-width: 1.0;"/><path d="M378.159,145.189 C384.443,161.2903 392.956,183.1073 399.525,199.9385 " fill="none" style="stroke: #A80036; stroke-width: 1.0;"/><polygon fill="#A80036" points="376.285,140.388,375.8327,150.2265,378.1037,145.0455,383.2847,147.3165,376.285,140.388" style="stroke: #A80036; stroke-width: 1.0;"/><path d="M173.841,145.189 C167.557,161.2903 159.044,183.1073 152.475,199.9385 " fill="none" style="stroke: #A80036; stroke-width: 1.0;"/><polygon fill="#A80036" points="175.715,140.388,168.7153,147.3165,173.8963,145.0455,176.1673,150.2265,175.715,140.388" style="stroke: #A80036; stroke-width: 1.0;"/><path d="M174.566,26 C184.4,26 194.233,26 204.066,26 " fill="none" style="stroke: #A80036; stroke-width: 1.0;"/><polygon fill="#A80036" points="209.208,26,200.208,22,204.208,26,200.208,30,209.208,26" style="stroke: #A80036; stroke-width: 1.0;"/><path d="M293.558,44.241 C309.158,60.009 332.269,83.369 348.895,100.174 " fill="none" style="stroke: #A80036; stroke-width: 1.0;"/><polygon fill="#A80036" points="352.551,103.868,349.0638,94.6572,349.0341,100.3139,343.3773,100.2842,352.551,103.868" style="stroke: #A80036; stroke-width: 1.0;"/><path d="M259.259,44.241 C243.491,60.009 220.131,83.369 203.326,100.174 " fill="none" style="stroke: #A80036; stroke-width: 1.0;"/><polygon fill="#A80036" points="199.632,103.868,208.8244,100.3325,203.1675,100.3325,203.1675,94.6756,199.632,103.868" style="stroke: #A80036; stroke-width: 1.0;"/></g></svg>