<?xml version="1.0" encoding="UTF-8" standalone="no"?><svg xmlns="http://www.w3.org/2000/svg" xmlns:xlink="http://www.w3.org/1999/xlink" contentScriptType="application/ecmascript" contentStyleType="text/css" height="243px" preserveAspectRatio="none" style="width:843px;height:243px;" version="1.1" viewBox="0 0 843 243" width="843px" zoomAndPan="magnify"><defs><filter height="300%" id="ft31w2k" width="300%" x="-1" y="-1"><feGaussianBlur result="blurOut" stdDeviation="2.0"/><feColorMatrix in="blurOut" result="blurOut2" type="matrix" values="0 0 0 0 0 0 0 0 0 0 0 0 0 0 0 0 0 0 .4 0"/><feOffset dx="4.0" dy="4.0" in="blurOut2" result="blurOut3"/><feBlend in="SourceGraphic" in2="blurOut3" mode="normal"/></filter></defs><g><!--entity compiler--><rect fill="#F8F8F8" filter="url(#ft31w2k)" height="36.2969" style="stroke: #000000; stroke-width: 1.5;" width="103" x="474.5" y="8"/><text fill="#000000" font-family="sans-serif" font-size="14" lengthAdjust="spacingAndGlyphs" textLength="83" x="484.5" y="30.9951">Compilateur</text><!--entity frontend--><rect fill="#F8F8F8" filter="url(#ft31w2k)" height="36.2969" style="stroke: #000000; stroke-width: 1.5;" width="115" x="332.5" y="104"/><text fill="#000000" font-family="sans-serif" font-size="14" lengthAdjust="spacingAndGlyphs" textLength="95" x="342.5" y="126.9951">Partie frontale</text><!--entity optimizer--><rect fill="#F8F8F8" filter="url(#ft31w2k)" height="36.2969" style="stroke: #000000; stroke-width: 1.5;" width="95" x="482.5" y="104"/><text fill="#000000" font-family="sans-serif" font-size="14" lengthAdjust="spacingAndGlyphs" textLength="75" x="492.5" y="126.9951">Optimiseur</text><!--entity backend--><rect fill="#F8F8F8" filter="url(#ft31w2k)" height="36.2969" style="stroke: #000000; stroke-width: 1.5;" width="99" x="612.5" y="104"/><text fill="#000000" font-family="sans-serif" font-size="14" lengthAdjust="spacingAndGlyphs" textLength="79" x="622.5" y="126.9951">Partie finale</text><!--entity lexer--><rect fill="#F8F8F8" filter="url(#ft31w2k)" height="36.2969" style="stroke: #000000; stroke-width: 1.5;" width="132" x="6" y="200"/><text fill="#000000" font-family="sans-serif" font-size="14" lengthAdjust="spacingAndGlyphs" textLength="112" x="16" y="222.9951">Analyseur lexical</text><!--entity parser--><rect fill="#F8F8F8" filter="url(#ft31w2k)" height="36.2969" style="stroke: #000000; stroke-width: 1.5;" width="165" x="173.5" y="200"/><text fill="#000000" font-family="sans-serif" font-size="14" lengthAdjust="spacingAndGlyphs" textLength="145" x="183.5" y="222.9951">Analyseur syntaxique</text><!--entity seman--><rect fill="#F8F8F8" filter="url(#ft31w2k)" height="36.2969" style="stroke: #000000; stroke-width: 1.5;" width="173" x="373.5" y="200"/><text fill="#000000" font-family="sans-serif" font-size="14" lengthAdjust="spacingAndGlyphs" textLength="153" x="383.5" y="222.9951">Analyseur sémantique</text><!--entity gen--><rect fill="#F8F8F8" filter="url(#ft31w2k)" height="36.2969" style="stroke: #000000; stroke-width: 1.5;" width="254" x="582" y="200"/><text fill="#000000" font-family="sans-serif" font-size="14" lengthAdjust="spacingAndGlyphs" textLength="234" x="592" y="222.9951">Générateur de code intermédiaire</text><path d="M501.371,44.023 C476.877,60.953 439.496,86.79 414.905,103.786 " fill="none" style="stroke: #383838; stroke-width: 1.0;"/><path d="M550.629,44.023 C575.123,60.953 612.504,86.79 637.095,103.786 " fill="none" style="stroke: #383838; stroke-width: 1.0;"/><path d="M447.695,122 C457.551,122 467.407,122 477.264,122 " fill="none" style="stroke: #383838; stroke-width: 1.0;"/><polygon fill="#383838" points="482.418,122,473.418,118,477.418,122,473.418,126,482.418,122" style="stroke: #383838; stroke-width: 1.0;"/><path d="M577.695,122 C587.51,122 597.326,122 607.141,122 " fill="none" style="stroke: #383838; stroke-width: 1.0;"/><polygon fill="#383838" points="612.273,122,603.273,118,607.273,122,603.273,126,612.273,122" style="stroke: #383838; stroke-width: 1.0;"/><path d="M332.413,140.0227 C274.959,157.0057 187.187,182.9511 129.695,199.9454 " fill="none" style="stroke: #383838; stroke-width: 1.0;"/><path d="M447.768,140.0227 C505.402,157.0057 593.451,182.9511 651.123,199.9454 " fill="none" style="stroke: #383838; stroke-width: 1.0;"/><path d="M138.125,218 C148.058,218 157.991,218 167.925,218 " fill="none" style="stroke: #383838; stroke-width: 1.0;"/><polygon fill="#383838" points="173.119,218,164.119,214,168.119,218,164.119,222,173.119,218" style="stroke: #383838; stroke-width: 1.0;"/><path d="M338.875,218 C348.679,218 358.483,218 368.288,218 " fill="none" style="stroke: #383838; stroke-width: 1.0;"/><polygon fill="#383838" points="373.415,218,364.415,214,368.415,218,364.415,222,373.415,218" style="stroke: #383838; stroke-width: 1.0;"/><path d="M546.566,218 C556.562,218 566.558,218 576.554,218 " fill="none" style="stroke: #383838; stroke-width: 1.0;"/><polygon fill="#383838" points="581.782,218,572.782,214,576.782,218,572.782,222,581.782,218" style="stroke: #383838; stroke-width: 1.0;"/></g></svg>