<?xml version="1.0" encoding="UTF-8" standalone="no"?><svg xmlns="http://www.w3.org/2000/svg" xmlns:xlink="http://www.w3.org/1999/xlink" contentScriptType="application/ecmascript" contentStyleType="text/css" height="163px" preserveAspectRatio="none" style="width:542px;height:163px;" version="1.1" viewBox="0 0 542 163" width="542px" zoomAndPan="magnify"><defs><filter height="300%" id="f7insxs" width="300%" x="-1" y="-1"><feGaussianBlur result="blurOut" stdDeviation="2.0"/><feColorMatrix in="blurOut" result="blurOut2" type="matrix" values="0 0 0 0 0 0 0 0 0 0 0 0 0 0 0 0 0 0 .4 0"/><feOffset dx="4.0" dy="4.0" in="blurOut2" result="blurOut3"/><feBlend in="SourceGraphic" in2="blurOut3" mode="normal"/></filter></defs><g><!--entity parser--><rect fill="#F8F8F8" filter="url(#f7insxs)" height="52.5938" style="stroke: #000000; stroke-width: 1.5;" width="165" x="311.5" y="104"/><text fill="#000000" font-family="sans-serif" font-size="14" lengthAdjust="spacingAndGlyphs" textLength="145" x="321.5" y="126.9951">Analyseur syntaxique</text><text fill="#000000" font-family="sans-serif" font-size="14" font-style="italic" lengthAdjust="spacingAndGlyphs" textLength="64" x="362" y="143.292">Parser LR</text><!--entity table--><rect fill="#F8F8F8" filter="url(#f7insxs)" height="36.2969" style="stroke: #000000; stroke-width: 1.5;" width="95" x="346.5" y="8"/><text fill="#000000" font-family="sans-serif" font-size="14" lengthAdjust="spacingAndGlyphs" textLength="75" x="356.5" y="30.9951">Table LALR</text><!--entity pp--><rect fill="#F8F8F8" filter="url(#f7insxs)" height="36.2969" style="stroke: #000000; stroke-width: 1.5;" width="134" x="177" y="8"/><text fill="#000000" font-family="sans-serif" font-size="14" lengthAdjust="spacingAndGlyphs" textLength="114" x="187" y="30.9951">Platinum Parsing</text><!--entity ebnf--><rect fill="#F8F8F8" filter="url(#f7insxs)" height="36.2969" style="stroke: #000000; stroke-width: 1.5;" width="136" x="6" y="8"/><text fill="#000000" font-family="sans-serif" font-size="14" lengthAdjust="spacingAndGlyphs" textLength="116" x="16" y="30.9951">Grammaire EBNF</text><!--entity token--><ellipse cx="256" cy="122.5" fill="#F8F8F8" filter="url(#f7insxs)" rx="8" ry="8" style="stroke: #383838; stroke-width: 2.0;"/><text fill="#000000" font-family="sans-serif" font-size="14" lengthAdjust="spacingAndGlyphs" textLength="40" x="236" y="144.4951">token</text><!--entity AST--><ellipse cx="525" cy="122.5" fill="#F8F8F8" filter="url(#f7insxs)" rx="8" ry="8" style="stroke: #383838; stroke-width: 2.0;"/><text fill="#000000" font-family="sans-serif" font-size="14" lengthAdjust="spacingAndGlyphs" textLength="27" x="511.5" y="144.4951">AST</text><path d="M276.215,130.5 C286.141,130.5 296.066,130.5 305.992,130.5 " fill="none" style="stroke: #383838; stroke-width: 1.0;"/><polygon fill="#383838" points="311.182,130.5,302.182,126.5,306.182,130.5,302.182,134.5,311.182,130.5" style="stroke: #383838; stroke-width: 1.0;"/><path d="M476.643,130.5 C486.508,130.5 496.374,130.5 506.24,130.5 " fill="none" style="stroke: #383838; stroke-width: 1.0;"/><polygon fill="#383838" points="511.399,130.5,502.399,126.5,506.399,130.5,502.399,134.5,511.399,130.5" style="stroke: #383838; stroke-width: 1.0;"/><path d="M394,49.607 C394,65.6661 394,87.2524 394,103.9385 " fill="none" style="stroke: #383838; stroke-width: 1.0;"/><polygon fill="#383838" points="394,44.388,390,53.388,394,49.388,398,53.388,394,44.388" style="stroke: #383838; stroke-width: 1.0;"/><path d="M142.066,26 C151.9,26 161.733,26 171.566,26 " fill="none" style="stroke: #383838; stroke-width: 1.0;"/><polygon fill="#383838" points="176.708,26,167.708,22,171.708,26,167.708,30,176.708,26" style="stroke: #383838; stroke-width: 1.0;"/><path d="M311.09,26 C321.11,26 331.131,26 341.151,26 " fill="none" style="stroke: #383838; stroke-width: 1.0;"/><polygon fill="#383838" points="346.391,26,337.391,22,341.391,26,337.391,30,346.391,26" style="stroke: #383838; stroke-width: 1.0;"/></g></svg>