<?xml version="1.0" encoding="UTF-8" standalone="no"?><svg xmlns="http://www.w3.org/2000/svg" xmlns:xlink="http://www.w3.org/1999/xlink" contentScriptType="application/ecmascript" contentStyleType="text/css" height="259px" preserveAspectRatio="none" style="width:445px;height:259px;" version="1.1" viewBox="0 0 445 259" width="445px" zoomAndPan="magnify"><defs><filter height="300%" id="fdovap1" width="300%" x="-1" y="-1"><feGaussianBlur result="blurOut" stdDeviation="2.0"/><feColorMatrix in="blurOut" result="blurOut2" type="matrix" values="0 0 0 0 0 0 0 0 0 0 0 0 0 0 0 0 0 0 .4 0"/><feOffset dx="4.0" dy="4.0" in="blurOut2" result="blurOut3"/><feBlend in="SourceGraphic" in2="blurOut3" mode="normal"/></filter></defs><g><!--entity grammar--><rect fill="#F8F8F8" filter="url(#fdovap1)" height="36.2969" style="stroke: #000000; stroke-width: 1.5;" width="95" x="6" y="8"/><text fill="#000000" font-family="sans-serif" font-size="14" lengthAdjust="spacingAndGlyphs" textLength="75" x="16" y="30.9951">Grammaire</text><!--entity input--><rect fill="#F8F8F8" filter="url(#fdovap1)" height="52.5938" style="stroke: #000000; stroke-width: 1.5;" width="103" x="111" y="200"/><text fill="#000000" font-family="sans-serif" font-size="14" lengthAdjust="spacingAndGlyphs" textLength="46" x="139.5" y="222.9951">Entrée</text><text fill="#000000" font-family="sans-serif" font-size="14" font-weight="bold" lengthAdjust="spacingAndGlyphs" textLength="83" x="121" y="239.292">2+3*(1+3)</text><!--entity template--><rect fill="#F8F8F8" filter="url(#fdovap1)" height="36.2969" style="stroke: #000000; stroke-width: 1.5;" width="111" x="136" y="8"/><text fill="#000000" font-family="sans-serif" font-size="14" font-style="italic" lengthAdjust="spacingAndGlyphs" textLength="65" x="146" y="30.9951">Template</text><text fill="#000000" font-family="sans-serif" font-size="14" lengthAdjust="spacingAndGlyphs" textLength="22" x="215" y="30.9951">C#</text><!--entity table--><rect fill="#F8F8F8" filter="url(#fdovap1)" height="36.2969" style="stroke: #000000; stroke-width: 1.5;" width="121" x="236" y="104"/><text fill="#000000" font-family="sans-serif" font-size="14" lengthAdjust="spacingAndGlyphs" textLength="101" x="246" y="126.9951">Table LALR C#</text><!--entity cli--><rect fill="#F8F8F8" filter="url(#fdovap1)" height="36.2969" style="stroke: #000000; stroke-width: 1.5;" width="158" x="43.5" y="104"/><text fill="#000000" font-family="sans-serif" font-size="14" lengthAdjust="spacingAndGlyphs" textLength="138" x="53.5" y="126.9951">Platinum Parsing CLI</text><!--entity engine--><rect fill="#F8F8F8" filter="url(#fdovap1)" height="36.2969" style="stroke: #000000; stroke-width: 1.5;" width="94" x="249.5" y="208.5"/><text fill="#000000" font-family="sans-serif" font-size="14" font-style="italic" lengthAdjust="spacingAndGlyphs" textLength="48" x="259.5" y="231.4951">Engine</text><text fill="#000000" font-family="sans-serif" font-size="14" lengthAdjust="spacingAndGlyphs" textLength="22" x="311.5" y="231.4951">C#</text><!--entity output--><rect fill="#F8F8F8" filter="url(#fdovap1)" height="52.5938" style="stroke: #000000; stroke-width: 1.5;" width="60" x="378.5" y="200"/><text fill="#000000" font-family="sans-serif" font-size="14" lengthAdjust="spacingAndGlyphs" textLength="40" x="388.5" y="222.9951">Sortie</text><text fill="#000000" font-family="sans-serif" font-size="14" font-weight="bold" lengthAdjust="spacingAndGlyphs" textLength="20" x="398.5" y="239.292">14</text><path d="M66.1557,44.241 C77.6328,59.877 94.5892,82.977 106.901,99.749 " fill="none" style="stroke: #383838; stroke-width: 1.0;"/><polygon fill="#383838" points="109.925,103.868,107.8248,94.2457,106.9667,99.8371,101.3753,98.979,109.925,103.868" style="stroke: #383838; stroke-width: 1.0;"/><path d="M178.844,44.241 C167.367,59.877 150.411,82.977 138.099,99.749 " fill="none" style="stroke: #383838; stroke-width: 1.0;"/><polygon fill="#383838" points="135.075,103.868,143.6246,98.9788,138.0332,99.837,137.1751,94.2456,135.075,103.868" style="stroke: #383838; stroke-width: 1.0;"/><path d="M201.684,122 C211.356,122 221.028,122 230.7,122 " fill="none" style="stroke: #383838; stroke-width: 1.0;"/><polygon fill="#383838" points="235.758,122,226.758,118,230.758,122,226.758,126,235.758,122" style="stroke: #383838; stroke-width: 1.0;"/><path d="M296.5,140.388 C296.5,157.7208 296.5,184.4075 296.5,203.2705 " fill="none" style="stroke: #383838; stroke-width: 1.0;"/><polygon fill="#383838" points="296.5,208.3691,300.5,199.3691,296.5,203.3691,292.5,199.3691,296.5,208.3691" style="stroke: #383838; stroke-width: 1.0;"/><path d="M214.059,226.5 C224.114,226.5 234.169,226.5 244.224,226.5 " fill="none" style="stroke: #383838; stroke-width: 1.0;"/><polygon fill="#383838" points="249.483,226.5,240.483,222.5,244.483,226.5,240.483,230.5,249.483,226.5" style="stroke: #383838; stroke-width: 1.0;"/><path d="M343.75,226.5 C353.586,226.5 363.422,226.5 373.258,226.5 " fill="none" style="stroke: #383838; stroke-width: 1.0;"/><polygon fill="#383838" points="378.401,226.5,369.401,222.5,373.401,226.5,369.401,230.5,378.401,226.5" style="stroke: #383838; stroke-width: 1.0;"/></g></svg>