<?xml version="1.0" encoding="UTF-8" standalone="no"?><svg xmlns="http://www.w3.org/2000/svg" xmlns:xlink="http://www.w3.org/1999/xlink" contentScriptType="application/ecmascript" contentStyleType="text/css" height="259px" preserveAspectRatio="none" style="width:454px;height:259px;" version="1.1" viewBox="0 0 454 259" width="454px" zoomAndPan="magnify"><defs><filter height="300%" id="fc9a7qw" width="300%" x="-1" y="-1"><feGaussianBlur result="blurOut" stdDeviation="2.0"/><feColorMatrix in="blurOut" result="blurOut2" type="matrix" values="0 0 0 0 0 0 0 0 0 0 0 0 0 0 0 0 0 0 .4 0"/><feOffset dx="4.0" dy="4.0" in="blurOut2" result="blurOut3"/><feBlend in="SourceGraphic" in2="blurOut3" mode="normal"/></filter></defs><g><!--entity grammar--><rect fill="#FEFECE" filter="url(#fc9a7qw)" height="36.2969" style="stroke: #000000; stroke-width: 1.5;" width="95" x="6" y="8"/><text fill="#000000" font-family="sans-serif" font-size="14" lengthAdjust="spacingAndGlyphs" textLength="75" x="16" y="30.9951">Grammaire</text><!--entity input--><rect fill="#FEFECE" filter="url(#fc9a7qw)" height="52.5938" style="stroke: #000000; stroke-width: 1.5;" width="103" x="102" y="200"/><text fill="#000000" font-family="sans-serif" font-size="14" lengthAdjust="spacingAndGlyphs" textLength="46" x="130.5" y="222.9951">Entrée</text><text fill="#000000" font-family="sans-serif" font-size="14" font-weight="bold" lengthAdjust="spacingAndGlyphs" textLength="83" x="112" y="239.292">2+3*(1+3)</text><!--entity template--><rect fill="#FEFECE" filter="url(#fc9a7qw)" height="36.2969" style="stroke: #000000; stroke-width: 1.5;" width="111" x="136" y="8"/><text fill="#000000" font-family="sans-serif" font-size="14" font-style="italic" lengthAdjust="spacingAndGlyphs" textLength="65" x="146" y="30.9951">Template</text><text fill="#000000" font-family="sans-serif" font-size="14" lengthAdjust="spacingAndGlyphs" textLength="22" x="215" y="30.9951">C#</text><!--entity table--><rect fill="#FEFECE" filter="url(#fc9a7qw)" height="36.2969" style="stroke: #000000; stroke-width: 1.5;" width="121" x="236" y="104"/><text fill="#000000" font-family="sans-serif" font-size="14" lengthAdjust="spacingAndGlyphs" textLength="101" x="246" y="126.9951">Table LALR C#</text><!--entity cli--><rect fill="#FEFECE" filter="url(#fc9a7qw)" height="36.2969" style="stroke: #000000; stroke-width: 1.5;" width="158" x="43.5" y="104"/><text fill="#000000" font-family="sans-serif" font-size="14" lengthAdjust="spacingAndGlyphs" textLength="138" x="53.5" y="126.9951">Platinum Parsing CLI</text><!--entity engine--><rect fill="#FEFECE" filter="url(#fc9a7qw)" height="52.5938" style="stroke: #000000; stroke-width: 1.5;" width="112" x="240.5" y="200"/><text fill="#000000" font-family="sans-serif" font-size="14" font-style="italic" lengthAdjust="spacingAndGlyphs" textLength="48" x="259.5" y="222.9951">Engine</text><text fill="#000000" font-family="sans-serif" font-size="14" lengthAdjust="spacingAndGlyphs" textLength="22" x="311.5" y="222.9951">C#</text><text fill="#000000" font-family="sans-serif" font-size="14" lengthAdjust="spacingAndGlyphs" textLength="92" x="250.5" y="239.292">(interpréteur)</text><!--entity output--><rect fill="#FEFECE" filter="url(#fc9a7qw)" height="52.5938" style="stroke: #000000; stroke-width: 1.5;" width="60" x="387.5" y="200"/><text fill="#000000" font-family="sans-serif" font-size="14" lengthAdjust="spacingAndGlyphs" textLength="40" x="397.5" y="222.9951">Sortie</text><text fill="#000000" font-family="sans-serif" font-size="14" font-weight="bold" lengthAdjust="spacingAndGlyphs" textLength="20" x="407.5" y="239.292">14</text><path d="M66.1557,44.241 C77.6328,59.877 94.5892,82.977 106.901,99.749 " fill="none" style="stroke: #A80036; stroke-width: 1.0;"/><polygon fill="#A80036" points="109.925,103.868,107.8248,94.2457,106.9667,99.8371,101.3753,98.979,109.925,103.868" style="stroke: #A80036; stroke-width: 1.0;"/><path d="M178.844,44.241 C167.367,59.877 150.411,82.977 138.099,99.749 " fill="none" style="stroke: #A80036; stroke-width: 1.0;"/><polygon fill="#A80036" points="135.075,103.868,143.6246,98.9788,138.0332,99.837,137.1751,94.2456,135.075,103.868" style="stroke: #A80036; stroke-width: 1.0;"/><path d="M201.684,122 C211.356,122 221.028,122 230.7,122 " fill="none" style="stroke: #A80036; stroke-width: 1.0;"/><polygon fill="#A80036" points="235.758,122,226.758,118,230.758,122,226.758,126,235.758,122" style="stroke: #A80036; stroke-width: 1.0;"/><path d="M296.5,140.388 C296.5,155.1916 296.5,176.8186 296.5,194.5668 " fill="none" style="stroke: #A80036; stroke-width: 1.0;"/><polygon fill="#A80036" points="296.5,199.9385,300.5,190.9385,296.5,194.9385,292.5,190.9385,296.5,199.9385" style="stroke: #A80036; stroke-width: 1.0;"/><path d="M205.17,226.5 C215.195,226.5 225.221,226.5 235.246,226.5 " fill="none" style="stroke: #A80036; stroke-width: 1.0;"/><polygon fill="#A80036" points="240.489,226.5,231.489,222.5,235.489,226.5,231.489,230.5,240.489,226.5" style="stroke: #A80036; stroke-width: 1.0;"/><path d="M352.746,226.5 C362.583,226.5 372.419,226.5 382.256,226.5 " fill="none" style="stroke: #A80036; stroke-width: 1.0;"/><polygon fill="#A80036" points="387.4,226.5,378.4,222.5,382.4,226.5,378.4,230.5,387.4,226.5" style="stroke: #A80036; stroke-width: 1.0;"/></g></svg>