<?xml version="1.0" encoding="UTF-8" standalone="no"?><svg xmlns="http://www.w3.org/2000/svg" xmlns:xlink="http://www.w3.org/1999/xlink" contentScriptType="application/ecmascript" contentStyleType="text/css" height="390px" preserveAspectRatio="none" style="width:438px;height:390px;" version="1.1" viewBox="0 0 438 390" width="438px" zoomAndPan="magnify"><defs><filter height="300%" id="fu7783z" width="300%" x="-1" y="-1"><feGaussianBlur result="blurOut" stdDeviation="2.0"/><feColorMatrix in="blurOut" result="blurOut2" type="matrix" values="0 0 0 0 0 0 0 0 0 0 0 0 0 0 0 0 0 0 .4 0"/><feOffset dx="4.0" dy="4.0" in="blurOut2" result="blurOut3"/><feBlend in="SourceGraphic" in2="blurOut3" mode="normal"/></filter></defs><g><!--entity grammar--><rect fill="#F8F8F8" filter="url(#fu7783z)" height="36.2969" style="stroke: #000000; stroke-width: 1.5;" width="95" x="41.5" y="8"/><text fill="#000000" font-family="sans-serif" font-size="14" lengthAdjust="spacingAndGlyphs" textLength="75" x="51.5" y="30.9951">Grammaire</text><!--entity ast--><rect fill="#F8F8F8" filter="url(#fu7783z)" height="36.2969" style="stroke: #000000; stroke-width: 1.5;" width="47" x="214.5" y="8"/><text fill="#000000" font-family="sans-serif" font-size="14" lengthAdjust="spacingAndGlyphs" textLength="27" x="224.5" y="30.9951">AST</text><!--entity rules--><rect fill="#F8F8F8" filter="url(#fu7783z)" height="36.2969" style="stroke: #000000; stroke-width: 1.5;" width="68" x="204" y="121"/><text fill="#000000" font-family="sans-serif" font-size="14" lengthAdjust="spacingAndGlyphs" textLength="48" x="214" y="143.9951">Règles</text><!--entity first--><rect fill="#F8F8F8" filter="url(#fu7783z)" height="36.2969" style="stroke: #000000; stroke-width: 1.5;" width="82" x="6" y="121"/><text fill="#000000" font-family="sans-serif" font-size="14" lengthAdjust="spacingAndGlyphs" textLength="62" x="16" y="143.9951">PREMIER</text><!--entity lr1--><rect fill="#F8F8F8" filter="url(#fu7783z)" height="36.2969" style="stroke: #000000; stroke-width: 1.5;" width="128" x="94" y="234"/><text fill="#000000" font-family="sans-serif" font-size="14" lengthAdjust="spacingAndGlyphs" textLength="108" x="104" y="256.9951">Collection LR(1)</text><!--entity lalr--><rect fill="#F8F8F8" filter="url(#fu7783z)" height="36.2969" style="stroke: #000000; stroke-width: 1.5;" width="125" x="95.5" y="347"/><text fill="#000000" font-family="sans-serif" font-size="14" lengthAdjust="spacingAndGlyphs" textLength="105" x="105.5" y="369.9951">Collection LALR</text><!--entity table--><rect fill="#F8F8F8" filter="url(#fu7783z)" height="36.2969" style="stroke: #000000; stroke-width: 1.5;" width="95" x="336.5" y="347"/><text fill="#000000" font-family="sans-serif" font-size="14" lengthAdjust="spacingAndGlyphs" textLength="75" x="346.5" y="369.9951">Table LALR</text><path d="M136.554,26 C160.422,26 188.555,26 209.133,26 " fill="none" style="stroke: #383838; stroke-width: 1.0;"/><polygon fill="#383838" points="214.195,26,205.195,22,209.195,26,205.195,30,214.195,26" style="stroke: #383838; stroke-width: 1.0;"/><text fill="#000000" font-family="sans-serif" font-size="13" font-style="italic" lengthAdjust="spacingAndGlyphs" textLength="41" x="155" y="19.0669">parser</text><path d="M238,44.344 C238,63.568 238,94.63 238,115.661 " fill="none" style="stroke: #383838; stroke-width: 1.0;"/><polygon fill="#383838" points="238,120.778,242,111.778,238,115.778,234,111.778,238,120.778" style="stroke: #383838; stroke-width: 1.0;"/><text fill="#000000" font-family="sans-serif" font-size="13" font-style="italic" lengthAdjust="spacingAndGlyphs" textLength="95" x="239" y="87.0669">transformation</text><path d="M93.8142,139 C127.903,139 173.29,139 203.965,139 " fill="none" style="stroke: #383838; stroke-width: 1.0;"/><polygon fill="#383838" points="88.4442,139,97.4442,143,93.4442,139,97.4442,135,88.4442,139" style="stroke: #383838; stroke-width: 1.0;"/><text fill="#000000" font-family="sans-serif" font-size="13" font-style="italic" lengthAdjust="spacingAndGlyphs" textLength="79" x="106.5" y="132.0669">construction</text><path d="M225.5,157.344 C211.41,176.894 188.497,208.686 173.336,229.721 " fill="none" style="stroke: #383838; stroke-width: 1.0;"/><polygon fill="#383838" points="170.412,233.778,178.9191,228.8152,173.3353,229.7216,172.4289,224.1379,170.412,233.778" style="stroke: #383838; stroke-width: 1.0;"/><text fill="#000000" font-family="sans-serif" font-size="13" font-style="italic" lengthAdjust="spacingAndGlyphs" textLength="69" x="203" y="200.0669">génération</text><path d="M64.3438,157.344 C83.975,176.975 115.951,208.951 136.984,229.984 " fill="none" style="stroke: #383838; stroke-width: 1.0;"/><polygon fill="#383838" points="140.778,233.778,137.2425,224.5856,137.2425,230.2425,131.5856,230.2425,140.778,233.778" style="stroke: #383838; stroke-width: 1.0;"/><path d="M158,270.344 C158,289.5677 158,320.6296 158,341.6606 " fill="none" style="stroke: #383838; stroke-width: 1.0;"/><polygon fill="#383838" points="158,346.778,162,337.778,158,341.778,154,337.778,158,346.778" style="stroke: #383838; stroke-width: 1.0;"/><text fill="#000000" font-family="sans-serif" font-size="13" font-style="italic" lengthAdjust="spacingAndGlyphs" textLength="38" x="159" y="313.0669">fusion</text><path d="M220.653,365 C255.373,365 298.063,365 331.093,365 " fill="none" style="stroke: #383838; stroke-width: 1.0;"/><polygon fill="#383838" points="336.309,365,327.309,361,331.309,365,327.309,369,336.309,365" style="stroke: #383838; stroke-width: 1.0;"/><text fill="#000000" font-family="sans-serif" font-size="13" font-style="italic" lengthAdjust="spacingAndGlyphs" textLength="79" x="239" y="358.0669">construction</text></g></svg>