<?xml version="1.0" encoding="UTF-8" standalone="no"?><svg xmlns="http://www.w3.org/2000/svg" xmlns:xlink="http://www.w3.org/1999/xlink" contentScriptType="application/ecmascript" contentStyleType="text/css" height="470px" preserveAspectRatio="none" style="width:455px;height:470px;" version="1.1" viewBox="0 0 455 470" width="455px" zoomAndPan="magnify"><defs><filter height="300%" id="f3dvb3r" width="300%" x="-1" y="-1"><feGaussianBlur result="blurOut" stdDeviation="2.0"/><feColorMatrix in="blurOut" result="blurOut2" type="matrix" values="0 0 0 0 0 0 0 0 0 0 0 0 0 0 0 0 0 0 .4 0"/><feOffset dx="4.0" dy="4.0" in="blurOut2" result="blurOut3"/><feBlend in="SourceGraphic" in2="blurOut3" mode="normal"/></filter></defs><g><!--entity grammar--><rect fill="#F8F8F8" filter="url(#f3dvb3r)" height="36.2969" style="stroke: #000000; stroke-width: 1.5;" width="95" x="35.5" y="8"/><text fill="#000000" font-family="sans-serif" font-size="14" lengthAdjust="spacingAndGlyphs" textLength="75" x="45.5" y="30.9951">Grammaire</text><!--entity ast--><rect fill="#F8F8F8" filter="url(#f3dvb3r)" height="36.2969" style="stroke: #000000; stroke-width: 1.5;" width="47" x="214.5" y="8"/><text fill="#000000" font-family="sans-serif" font-size="14" lengthAdjust="spacingAndGlyphs" textLength="27" x="224.5" y="30.9951">AST</text><!--entity rules--><rect fill="#F8F8F8" filter="url(#f3dvb3r)" height="36.2969" style="stroke: #000000; stroke-width: 1.5;" width="68" x="204" y="121"/><text fill="#000000" font-family="sans-serif" font-size="14" lengthAdjust="spacingAndGlyphs" textLength="48" x="214" y="143.9951">Règles</text><!--entity first--><rect fill="#F8F8F8" filter="url(#f3dvb3r)" height="36.2969" style="stroke: #000000; stroke-width: 1.5;" width="82" x="6" y="121"/><text fill="#000000" font-family="sans-serif" font-size="14" lengthAdjust="spacingAndGlyphs" textLength="62" x="16" y="143.9951">PREMIER</text><!--entity lr1--><rect fill="#F8F8F8" filter="url(#f3dvb3r)" height="36.2969" style="stroke: #000000; stroke-width: 1.5;" width="128" x="94" y="274"/><text fill="#000000" font-family="sans-serif" font-size="14" lengthAdjust="spacingAndGlyphs" textLength="108" x="104" y="296.9951">Collection LR(1)</text><!--entity lalr--><rect fill="#F8F8F8" filter="url(#f3dvb3r)" height="36.2969" style="stroke: #000000; stroke-width: 1.5;" width="125" x="95.5" y="427"/><text fill="#000000" font-family="sans-serif" font-size="14" lengthAdjust="spacingAndGlyphs" textLength="105" x="105.5" y="449.9951">Collection LALR</text><!--entity table--><rect fill="#F8F8F8" filter="url(#f3dvb3r)" height="36.2969" style="stroke: #000000; stroke-width: 1.5;" width="95" x="336.5" y="427"/><text fill="#000000" font-family="sans-serif" font-size="14" lengthAdjust="spacingAndGlyphs" textLength="75" x="346.5" y="449.9951">Table LALR</text><polygon fill="#ECECEC" filter="url(#f3dvb3r)" points="291.5,234,291.5,349.9297,446.5,349.9297,446.5,244,436.5,234,291.5,234" style="stroke: #383838; stroke-width: 1.0;"/><polygon fill="#ECECEC" points="291.5,234,291.5,288,222.289,292,291.5,296,291.5,349.9297,446.5,349.9297,446.5,244,436.5,234,291.5,234" style="stroke: #383838; stroke-width: 1.0;"/><line style="stroke: #383838; stroke-width: 1.0;" x1="436.5" x2="436.5" y1="234" y2="244"/><line style="stroke: #383838; stroke-width: 1.0;" x1="446.5" x2="436.5" y1="244" y2="244"/><text fill="#000000" font-family="sans-serif" font-size="13" lengthAdjust="spacingAndGlyphs" textLength="76" x="297.5" y="251.0669">items set 0:</text><text fill="#000000" font-family="sans-serif" font-size="13" lengthAdjust="spacingAndGlyphs" textLength="101" x="305.5" y="266.1997">C =&gt; * c C $ | c</text><text fill="#000000" font-family="sans-serif" font-size="13" lengthAdjust="spacingAndGlyphs" textLength="102" x="305.5" y="281.3325">C =&gt; * c C $ | d</text><text fill="#000000" font-family="sans-serif" font-size="13" lengthAdjust="spacingAndGlyphs" textLength="89" x="305.5" y="296.4653">C =&gt; * d $ | c</text><text fill="#000000" font-family="sans-serif" font-size="13" lengthAdjust="spacingAndGlyphs" textLength="90" x="305.5" y="311.5981">C =&gt; * d $ | d</text><text fill="#000000" font-family="sans-serif" font-size="13" lengthAdjust="spacingAndGlyphs" textLength="104" x="305.5" y="326.731">S =&gt; * C C $ | $</text><text fill="#000000" font-family="sans-serif" font-size="13" lengthAdjust="spacingAndGlyphs" textLength="126" x="305.5" y="341.8638">__start =&gt; * S $ | $</text><path d="M130.77,26 C156.463,26 187.294,26 209.289,26 " fill="none" style="stroke: #383838; stroke-width: 1.0;"/><polygon fill="#383838" points="214.401,26,205.401,22,209.401,26,205.401,30,214.401,26" style="stroke: #383838; stroke-width: 1.0;"/><text fill="#000000" font-family="sans-serif" font-size="13" font-style="italic" lengthAdjust="spacingAndGlyphs" textLength="47" x="149" y="19.0669">parsing</text><path d="M238,44.344 C238,63.568 238,94.63 238,115.661 " fill="none" style="stroke: #383838; stroke-width: 1.0;"/><polygon fill="#383838" points="238,120.778,242,111.778,238,115.778,234,111.778,238,120.778" style="stroke: #383838; stroke-width: 1.0;"/><text fill="#000000" font-family="sans-serif" font-size="13" font-style="italic" lengthAdjust="spacingAndGlyphs" textLength="95" x="239" y="87.0669">transformation</text><path d="M93.8142,139 C127.903,139 173.29,139 203.965,139 " fill="none" style="stroke: #383838; stroke-width: 1.0;"/><polygon fill="#383838" points="88.4442,139,97.4442,143,93.4442,139,97.4442,135,88.4442,139" style="stroke: #383838; stroke-width: 1.0;"/><text fill="#000000" font-family="sans-serif" font-size="13" font-style="italic" lengthAdjust="spacingAndGlyphs" textLength="79" x="106.5" y="132.0669">construction</text><path d="M228.978,157.028 C214.394,184.556 185.653,238.806 169.578,269.146 " fill="none" style="stroke: #383838; stroke-width: 1.0;"/><polygon fill="#383838" points="167.111,273.802,174.8603,267.7235,169.4527,269.3843,167.7919,263.9767,167.111,273.802" style="stroke: #383838; stroke-width: 1.0;"/><text fill="#000000" font-family="sans-serif" font-size="13" font-style="italic" lengthAdjust="spacingAndGlyphs" textLength="69" x="213" y="200.0669">génération</text><path d="M59.5173,157.028 C79.8365,184.669 119.961,239.253 142.21,269.519 " fill="none" style="stroke: #383838; stroke-width: 1.0;"/><polygon fill="#383838" points="145.358,273.802,143.2503,264.1813,142.3965,269.7734,136.8045,268.9197,145.358,273.802" style="stroke: #383838; stroke-width: 1.0;"/><path d="M158,310.028 C158,337.443 158,391.3597 158,421.7703 " fill="none" style="stroke: #383838; stroke-width: 1.0;"/><polygon fill="#383838" points="158,426.8025,162,417.8025,158,421.8025,154,417.8025,158,426.8025" style="stroke: #383838; stroke-width: 1.0;"/><text fill="#000000" font-family="sans-serif" font-size="13" font-style="italic" lengthAdjust="spacingAndGlyphs" textLength="38" x="159" y="393.0669">fusion</text><path d="M220.653,445 C255.373,445 298.063,445 331.093,445 " fill="none" style="stroke: #383838; stroke-width: 1.0;"/><polygon fill="#383838" points="336.309,445,327.309,441,331.309,445,327.309,449,336.309,445" style="stroke: #383838; stroke-width: 1.0;"/><text fill="#000000" font-family="sans-serif" font-size="13" font-style="italic" lengthAdjust="spacingAndGlyphs" textLength="79" x="239" y="438.0669">construction</text></g></svg>