<?xml version="1.0" encoding="UTF-8" standalone="no"?><svg xmlns="http://www.w3.org/2000/svg" xmlns:xlink="http://www.w3.org/1999/xlink" contentScriptType="application/ecmascript" contentStyleType="text/css" height="440px" preserveAspectRatio="none" style="width:451px;height:440px;" version="1.1" viewBox="0 0 451 440" width="451px" zoomAndPan="magnify"><defs><filter height="300%" id="fgaoh87" width="300%" x="-1" y="-1"><feGaussianBlur result="blurOut" stdDeviation="2.0"/><feColorMatrix in="blurOut" result="blurOut2" type="matrix" values="0 0 0 0 0 0 0 0 0 0 0 0 0 0 0 0 0 0 .4 0"/><feOffset dx="4.0" dy="4.0" in="blurOut2" result="blurOut3"/><feBlend in="SourceGraphic" in2="blurOut3" mode="normal"/></filter></defs><g><!--entity grammar--><rect fill="#FEFECE" filter="url(#fgaoh87)" height="36.2969" style="stroke: #000000; stroke-width: 1.5;" width="95" x="35.5" y="8"/><text fill="#000000" font-family="sans-serif" font-size="14" lengthAdjust="spacingAndGlyphs" textLength="75" x="45.5" y="30.9951">Grammaire</text><!--entity ast--><rect fill="#FEFECE" filter="url(#fgaoh87)" height="36.2969" style="stroke: #000000; stroke-width: 1.5;" width="47" x="214.5" y="8"/><text fill="#000000" font-family="sans-serif" font-size="14" lengthAdjust="spacingAndGlyphs" textLength="27" x="224.5" y="30.9951">AST</text><!--entity rules--><rect fill="#FEFECE" filter="url(#fgaoh87)" height="36.2969" style="stroke: #000000; stroke-width: 1.5;" width="68" x="204" y="121"/><text fill="#000000" font-family="sans-serif" font-size="14" lengthAdjust="spacingAndGlyphs" textLength="48" x="214" y="143.9951">Règles</text><!--entity first--><rect fill="#FEFECE" filter="url(#fgaoh87)" height="36.2969" style="stroke: #000000; stroke-width: 1.5;" width="82" x="6" y="121"/><text fill="#000000" font-family="sans-serif" font-size="14" lengthAdjust="spacingAndGlyphs" textLength="62" x="16" y="143.9951">PREMIER</text><!--entity lr1--><rect fill="#FEFECE" filter="url(#fgaoh87)" height="36.2969" style="stroke: #000000; stroke-width: 1.5;" width="128" x="94" y="259"/><text fill="#000000" font-family="sans-serif" font-size="14" lengthAdjust="spacingAndGlyphs" textLength="108" x="104" y="281.9951">Collection LR(1)</text><!--entity lalr--><rect fill="#FEFECE" filter="url(#fgaoh87)" height="36.2969" style="stroke: #000000; stroke-width: 1.5;" width="125" x="95.5" y="397"/><text fill="#000000" font-family="sans-serif" font-size="14" lengthAdjust="spacingAndGlyphs" textLength="105" x="105.5" y="419.9951">Collection LALR</text><!--entity table--><rect fill="#FEFECE" filter="url(#fgaoh87)" height="36.2969" style="stroke: #000000; stroke-width: 1.5;" width="95" x="336.5" y="397"/><text fill="#000000" font-family="sans-serif" font-size="14" lengthAdjust="spacingAndGlyphs" textLength="75" x="346.5" y="419.9951">Table LALR</text><polygon fill="#FBFB77" filter="url(#fgaoh87)" points="291.5,234,291.5,319.6641,442.5,319.6641,442.5,244,432.5,234,291.5,234" style="stroke: #A80036; stroke-width: 1.0;"/><polygon fill="#FBFB77" points="291.5,234,291.5,273,222.088,277,291.5,281,291.5,319.6641,442.5,319.6641,442.5,244,432.5,234,291.5,234" style="stroke: #A80036; stroke-width: 1.0;"/><line style="stroke: #A80036; stroke-width: 1.0;" x1="432.5" x2="432.5" y1="234" y2="244"/><line style="stroke: #A80036; stroke-width: 1.0;" x1="442.5" x2="432.5" y1="244" y2="244"/><text fill="#000000" font-family="sans-serif" font-size="13" lengthAdjust="spacingAndGlyphs" textLength="76" x="297.5" y="251.0669">items set 0:</text><text fill="#000000" font-family="sans-serif" font-size="13" lengthAdjust="spacingAndGlyphs" textLength="117" x="305.5" y="266.1997">C =&gt; * c C $, c / d</text><text fill="#000000" font-family="sans-serif" font-size="13" lengthAdjust="spacingAndGlyphs" textLength="105" x="305.5" y="281.3325">C =&gt; * d $, c / d</text><text fill="#000000" font-family="sans-serif" font-size="13" lengthAdjust="spacingAndGlyphs" textLength="100" x="305.5" y="296.4653">S =&gt; * C C $, $</text><text fill="#000000" font-family="sans-serif" font-size="13" lengthAdjust="spacingAndGlyphs" textLength="122" x="305.5" y="311.5981">__start =&gt; * S $, $</text><path d="M130.77,26 C156.463,26 187.294,26 209.289,26 " fill="none" style="stroke: #A80036; stroke-width: 1.0;"/><polygon fill="#A80036" points="214.401,26,205.401,22,209.401,26,205.401,30,214.401,26" style="stroke: #A80036; stroke-width: 1.0;"/><text fill="#000000" font-family="sans-serif" font-size="13" font-style="italic" lengthAdjust="spacingAndGlyphs" textLength="47" x="149" y="19.0669">parsing</text><path d="M238,44.344 C238,63.568 238,94.63 238,115.661 " fill="none" style="stroke: #A80036; stroke-width: 1.0;"/><polygon fill="#A80036" points="238,120.778,242,111.778,238,115.778,234,111.778,238,120.778" style="stroke: #A80036; stroke-width: 1.0;"/><text fill="#000000" font-family="sans-serif" font-size="13" font-style="italic" lengthAdjust="spacingAndGlyphs" textLength="95" x="239" y="87.0669">transformation</text><path d="M93.8142,139 C127.903,139 173.29,139 203.965,139 " fill="none" style="stroke: #A80036; stroke-width: 1.0;"/><polygon fill="#A80036" points="88.4442,139,97.4442,143,93.4442,139,97.4442,135,88.4442,139" style="stroke: #A80036; stroke-width: 1.0;"/><text fill="#000000" font-family="sans-serif" font-size="13" font-style="italic" lengthAdjust="spacingAndGlyphs" textLength="79" x="106.5" y="132.0669">construction</text><path d="M227.868,157.224 C213.321,181.954 186.53,227.499 170.685,254.435 " fill="none" style="stroke: #A80036; stroke-width: 1.0;"/><polygon fill="#A80036" points="168.05,258.915,176.0622,253.1874,170.586,254.6059,169.1676,249.1298,168.05,258.915" style="stroke: #A80036; stroke-width: 1.0;"/><text fill="#000000" font-family="sans-serif" font-size="13" font-style="italic" lengthAdjust="spacingAndGlyphs" textLength="69" x="210" y="200.0669">génération</text><path d="M61.0582,157.224 C81.3253,182.056 118.722,227.876 140.671,254.768 " fill="none" style="stroke: #A80036; stroke-width: 1.0;"/><polygon fill="#A80036" points="144.056,258.915,141.4634,249.4135,140.8942,255.0417,135.266,254.4724,144.056,258.915" style="stroke: #A80036; stroke-width: 1.0;"/><path d="M158,295.224 C158,319.75 158,364.7477 158,391.7634 " fill="none" style="stroke: #A80036; stroke-width: 1.0;"/><polygon fill="#A80036" points="158,396.9154,162,387.9154,158,391.9154,154,387.9154,158,396.9154" style="stroke: #A80036; stroke-width: 1.0;"/><text fill="#000000" font-family="sans-serif" font-size="13" font-style="italic" lengthAdjust="spacingAndGlyphs" textLength="38" x="159" y="363.0669">fusion</text><path d="M220.653,415 C255.373,415 298.063,415 331.093,415 " fill="none" style="stroke: #A80036; stroke-width: 1.0;"/><polygon fill="#A80036" points="336.309,415,327.309,411,331.309,415,327.309,419,336.309,415" style="stroke: #A80036; stroke-width: 1.0;"/><text fill="#000000" font-family="sans-serif" font-size="13" font-style="italic" lengthAdjust="spacingAndGlyphs" textLength="79" x="239" y="408.0669">construction</text></g></svg>