<?xml version="1.0" encoding="UTF-8" standalone="no"?><svg xmlns="http://www.w3.org/2000/svg" xmlns:xlink="http://www.w3.org/1999/xlink" contentScriptType="application/ecmascript" contentStyleType="text/css" height="468px" preserveAspectRatio="none" style="width:530px;height:468px;" version="1.1" viewBox="0 0 530 468" width="530px" zoomAndPan="magnify"><defs><filter height="300%" id="f1zbe8l" width="300%" x="-1" y="-1"><feGaussianBlur result="blurOut" stdDeviation="2.0"/><feColorMatrix in="blurOut" result="blurOut2" type="matrix" values="0 0 0 0 0 0 0 0 0 0 0 0 0 0 0 0 0 0 .4 0"/><feOffset dx="4.0" dy="4.0" in="blurOut2" result="blurOut3"/><feBlend in="SourceGraphic" in2="blurOut3" mode="normal"/></filter></defs><g><!--entity ast--><rect fill="#F8F8F8" filter="url(#f1zbe8l)" height="36.2969" style="stroke: #000000; stroke-width: 1.5;" width="47" x="192.5" y="8"/><text fill="#000000" font-family="sans-serif" font-size="14" lengthAdjust="spacingAndGlyphs" textLength="27" x="202.5" y="30.9951">AST</text><!--entity rule1--><rect fill="#F8F8F8" filter="url(#f1zbe8l)" height="36.2969" style="stroke: #000000; stroke-width: 1.5;" width="51" x="142.5" y="104"/><text fill="#000000" font-family="sans-serif" font-size="14" lengthAdjust="spacingAndGlyphs" textLength="31" x="152.5" y="126.9951">Rule</text><!--entity id1--><rect fill="#F8F8F8" filter="url(#f1zbe8l)" height="52.5938" style="stroke: #000000; stroke-width: 1.5;" width="79" x="32.5" y="200"/><text fill="#000000" font-family="sans-serif" font-size="14" lengthAdjust="spacingAndGlyphs" textLength="59" x="42.5" y="222.9951">Identifier</text><text fill="#000000" font-family="sans-serif" font-size="14" font-style="italic" font-weight="bold" lengthAdjust="spacingAndGlyphs" textLength="10" x="67" y="239.292">S</text><!--entity list1--><rect fill="#F8F8F8" filter="url(#f1zbe8l)" height="36.2969" style="stroke: #000000; stroke-width: 1.5;" width="43" x="146.5" y="208.5"/><text fill="#000000" font-family="sans-serif" font-size="14" lengthAdjust="spacingAndGlyphs" textLength="23" x="156.5" y="231.4951">List</text><!--entity def11--><rect fill="#F8F8F8" filter="url(#f1zbe8l)" height="36.2969" style="stroke: #000000; stroke-width: 1.5;" width="85" x="124.5" y="313"/><text fill="#000000" font-family="sans-serif" font-size="14" lengthAdjust="spacingAndGlyphs" textLength="65" x="134.5" y="335.9951">Definition</text><!--entity nt111--><rect fill="#F8F8F8" filter="url(#f1zbe8l)" height="52.5938" style="stroke: #000000; stroke-width: 1.5;" width="84" x="6" y="409"/><text fill="#000000" font-family="sans-serif" font-size="14" lengthAdjust="spacingAndGlyphs" textLength="64" x="16" y="431.9951">NonTerm</text><text fill="#000000" font-family="sans-serif" font-size="14" font-style="italic" font-weight="bold" lengthAdjust="spacingAndGlyphs" textLength="10" x="43" y="448.292">C</text><!--entity nt112--><rect fill="#F8F8F8" filter="url(#f1zbe8l)" height="52.5938" style="stroke: #000000; stroke-width: 1.5;" width="84" x="125" y="409"/><text fill="#000000" font-family="sans-serif" font-size="14" lengthAdjust="spacingAndGlyphs" textLength="64" x="135" y="431.9951">NonTerm</text><text fill="#000000" font-family="sans-serif" font-size="14" font-style="italic" font-weight="bold" lengthAdjust="spacingAndGlyphs" textLength="10" x="162" y="448.292">C</text><!--entity rule2--><rect fill="#F8F8F8" filter="url(#f1zbe8l)" height="36.2969" style="stroke: #000000; stroke-width: 1.5;" width="51" x="238.5" y="104"/><text fill="#000000" font-family="sans-serif" font-size="14" lengthAdjust="spacingAndGlyphs" textLength="31" x="248.5" y="126.9951">Rule</text><!--entity id2--><rect fill="#F8F8F8" filter="url(#f1zbe8l)" height="52.5938" style="stroke: #000000; stroke-width: 1.5;" width="79" x="224.5" y="200"/><text fill="#000000" font-family="sans-serif" font-size="14" lengthAdjust="spacingAndGlyphs" textLength="59" x="234.5" y="222.9951">Identifier</text><text fill="#000000" font-family="sans-serif" font-size="14" font-style="italic" font-weight="bold" lengthAdjust="spacingAndGlyphs" textLength="10" x="259" y="239.292">C</text><!--entity list2--><rect fill="#F8F8F8" filter="url(#f1zbe8l)" height="36.2969" style="stroke: #000000; stroke-width: 1.5;" width="43" x="338.5" y="208.5"/><text fill="#000000" font-family="sans-serif" font-size="14" lengthAdjust="spacingAndGlyphs" textLength="23" x="348.5" y="231.4951">List</text><!--entity def21--><rect fill="#F8F8F8" filter="url(#f1zbe8l)" height="36.2969" style="stroke: #000000; stroke-width: 1.5;" width="85" x="317.5" y="313"/><text fill="#000000" font-family="sans-serif" font-size="14" lengthAdjust="spacingAndGlyphs" textLength="65" x="327.5" y="335.9951">Definition</text><!--entity def22--><rect fill="#F8F8F8" filter="url(#f1zbe8l)" height="36.2969" style="stroke: #000000; stroke-width: 1.5;" width="85" x="438.5" y="313"/><text fill="#000000" font-family="sans-serif" font-size="14" lengthAdjust="spacingAndGlyphs" textLength="65" x="448.5" y="335.9951">Definition</text><!--entity t211--><rect fill="#F8F8F8" filter="url(#f1zbe8l)" height="52.5938" style="stroke: #000000; stroke-width: 1.5;" width="56" x="244" y="409"/><text fill="#000000" font-family="sans-serif" font-size="14" lengthAdjust="spacingAndGlyphs" textLength="36" x="254" y="431.9951">Term</text><text fill="#000000" font-family="sans-serif" font-size="14" font-style="italic" font-weight="bold" lengthAdjust="spacingAndGlyphs" textLength="8" x="268" y="448.292">c</text><!--entity nt211--><rect fill="#F8F8F8" filter="url(#f1zbe8l)" height="52.5938" style="stroke: #000000; stroke-width: 1.5;" width="84" x="335" y="409"/><text fill="#000000" font-family="sans-serif" font-size="14" lengthAdjust="spacingAndGlyphs" textLength="64" x="345" y="431.9951">NonTerm</text><text fill="#000000" font-family="sans-serif" font-size="14" font-style="italic" font-weight="bold" lengthAdjust="spacingAndGlyphs" textLength="10" x="372" y="448.292">C</text><!--entity t221--><rect fill="#F8F8F8" filter="url(#f1zbe8l)" height="52.5938" style="stroke: #000000; stroke-width: 1.5;" width="56" x="454" y="409"/><text fill="#000000" font-family="sans-serif" font-size="14" lengthAdjust="spacingAndGlyphs" textLength="36" x="464" y="431.9951">Term</text><text fill="#000000" font-family="sans-serif" font-size="14" font-style="italic" font-weight="bold" lengthAdjust="spacingAndGlyphs" textLength="10" x="477" y="448.292">d</text><path d="M207.196,44.241 C198.535,61.202 185.39,86.945 176.748,103.868 " fill="none" style="stroke: #383838; stroke-width: 1.0;"/><path d="M151.715,140.388 C136.415,156.723 113.335,181.366 95.9405,199.939 " fill="none" style="stroke: #383838; stroke-width: 1.0;"/><path d="M168,140.388 C168,159.35 168,189.508 168,208.369 " fill="none" style="stroke: #383838; stroke-width: 1.0;"/><path d="M167.83,244.888 C167.645,263.85 167.351,294.008 167.167,312.869 " fill="none" style="stroke: #383838; stroke-width: 1.0;"/><path d="M147.082,349.156 C128.159,365.4555 99.4602,390.175 77.8116,408.8219 " fill="none" style="stroke: #383838; stroke-width: 1.0;"/><path d="M167,349.388 C167,365.7231 167,390.3661 167,408.9385 " fill="none" style="stroke: #383838; stroke-width: 1.0;"/><path d="M224.804,44.241 C233.465,61.202 246.61,86.945 255.252,103.868 " fill="none" style="stroke: #383838; stroke-width: 1.0;"/><path d="M264,140.388 C264,156.723 264,181.366 264,199.939 " fill="none" style="stroke: #383838; stroke-width: 1.0;"/><path d="M280.285,140.388 C298.045,159.35 326.291,189.508 343.955,208.369 " fill="none" style="stroke: #383838; stroke-width: 1.0;"/><path d="M360,244.888 C360,263.85 360,294.008 360,312.869 " fill="none" style="stroke: #383838; stroke-width: 1.0;"/><path d="M345.072,349.388 C331.048,365.7231 309.891,390.3661 293.945,408.9385 " fill="none" style="stroke: #383838; stroke-width: 1.0;"/><path d="M362.884,349.388 C365.593,365.7231 369.68,390.3661 372.761,408.9385 " fill="none" style="stroke: #383838; stroke-width: 1.0;"/><path d="M380.253,244.656 C402.589,263.577 438.319,293.845 460.681,312.788 " fill="none" style="stroke: #383838; stroke-width: 1.0;"/><path d="M481.17,349.388 C481.329,365.7231 481.569,390.3661 481.751,408.9385 " fill="none" style="stroke: #383838; stroke-width: 1.0;"/></g></svg>