<?xml version="1.0" encoding="UTF-8" standalone="no"?><svg xmlns="http://www.w3.org/2000/svg" xmlns:xlink="http://www.w3.org/1999/xlink" contentScriptType="application/ecmascript" contentStyleType="text/css" height="468px" preserveAspectRatio="none" style="width:569px;height:468px;" version="1.1" viewBox="0 0 569 468" width="569px" zoomAndPan="magnify"><defs><filter height="300%" id="f29ztn1" width="300%" x="-1" y="-1"><feGaussianBlur result="blurOut" stdDeviation="2.0"/><feColorMatrix in="blurOut" result="blurOut2" type="matrix" values="0 0 0 0 0 0 0 0 0 0 0 0 0 0 0 0 0 0 .4 0"/><feOffset dx="4.0" dy="4.0" in="blurOut2" result="blurOut3"/><feBlend in="SourceGraphic" in2="blurOut3" mode="normal"/></filter></defs><g><!--entity ast--><rect fill="#FEFECE" filter="url(#f29ztn1)" height="36.2969" style="stroke: #000000; stroke-width: 1.5;" width="83" x="185" y="8"/><text fill="#000000" font-family="sans-serif" font-size="14" lengthAdjust="spacingAndGlyphs" textLength="63" x="195" y="30.9951">Grammar</text><!--entity rule1--><rect fill="#FEFECE" filter="url(#f29ztn1)" height="36.2969" style="stroke: #000000; stroke-width: 1.5;" width="51" x="141" y="104"/><text fill="#000000" font-family="sans-serif" font-size="14" lengthAdjust="spacingAndGlyphs" textLength="31" x="151" y="126.9951">Rule</text><!--entity id1--><rect fill="#FFFF00" filter="url(#f29ztn1)" height="52.5938" style="stroke: #000000; stroke-width: 1.5;" width="79" x="6" y="200"/><text fill="#000000" font-family="sans-serif" font-size="14" lengthAdjust="spacingAndGlyphs" textLength="59" x="16" y="222.9951">Identifier</text><text fill="#000000" font-family="sans-serif" font-size="14" font-style="italic" font-weight="bold" lengthAdjust="spacingAndGlyphs" textLength="10" x="40.5" y="239.292">S</text><!--entity list1--><rect fill="#FEFECE" filter="url(#f29ztn1)" height="36.2969" style="stroke: #000000; stroke-width: 1.5;" width="92" x="120.5" y="208.5"/><text fill="#000000" font-family="sans-serif" font-size="14" lengthAdjust="spacingAndGlyphs" textLength="72" x="130.5" y="231.4951">Alternative</text><!--entity def11--><rect fill="#FEFECE" filter="url(#f29ztn1)" height="36.2969" style="stroke: #000000; stroke-width: 1.5;" width="85" x="124" y="313"/><text fill="#000000" font-family="sans-serif" font-size="14" lengthAdjust="spacingAndGlyphs" textLength="65" x="134" y="335.9951">Definition</text><!--entity nt111--><rect fill="#FFA500" filter="url(#f29ztn1)" height="52.5938" style="stroke: #000000; stroke-width: 1.5;" width="84" x="13.5" y="409"/><text fill="#000000" font-family="sans-serif" font-size="14" lengthAdjust="spacingAndGlyphs" textLength="64" x="23.5" y="431.9951">NonTerm</text><text fill="#000000" font-family="sans-serif" font-size="14" font-style="italic" font-weight="bold" lengthAdjust="spacingAndGlyphs" textLength="10" x="50.5" y="448.292">C</text><!--entity nt112--><rect fill="#FFA500" filter="url(#f29ztn1)" height="52.5938" style="stroke: #000000; stroke-width: 1.5;" width="84" x="132.5" y="409"/><text fill="#000000" font-family="sans-serif" font-size="14" lengthAdjust="spacingAndGlyphs" textLength="64" x="142.5" y="431.9951">NonTerm</text><text fill="#000000" font-family="sans-serif" font-size="14" font-style="italic" font-weight="bold" lengthAdjust="spacingAndGlyphs" textLength="10" x="169.5" y="448.292">C</text><!--entity rule2--><rect fill="#FEFECE" filter="url(#f29ztn1)" height="36.2969" style="stroke: #000000; stroke-width: 1.5;" width="51" x="262" y="104"/><text fill="#000000" font-family="sans-serif" font-size="14" lengthAdjust="spacingAndGlyphs" textLength="31" x="272" y="126.9951">Rule</text><!--entity id2--><rect fill="#FFFF00" filter="url(#f29ztn1)" height="52.5938" style="stroke: #000000; stroke-width: 1.5;" width="79" x="248" y="200"/><text fill="#000000" font-family="sans-serif" font-size="14" lengthAdjust="spacingAndGlyphs" textLength="59" x="258" y="222.9951">Identifier</text><text fill="#000000" font-family="sans-serif" font-size="14" font-style="italic" font-weight="bold" lengthAdjust="spacingAndGlyphs" textLength="10" x="282.5" y="239.292">C</text><!--entity list2--><rect fill="#FEFECE" filter="url(#f29ztn1)" height="36.2969" style="stroke: #000000; stroke-width: 1.5;" width="92" x="362.5" y="208.5"/><text fill="#000000" font-family="sans-serif" font-size="14" lengthAdjust="spacingAndGlyphs" textLength="72" x="372.5" y="231.4951">Alternative</text><!--entity def21--><rect fill="#FEFECE" filter="url(#f29ztn1)" height="36.2969" style="stroke: #000000; stroke-width: 1.5;" width="85" x="357" y="313"/><text fill="#000000" font-family="sans-serif" font-size="14" lengthAdjust="spacingAndGlyphs" textLength="65" x="367" y="335.9951">Definition</text><!--entity def22--><rect fill="#FEFECE" filter="url(#f29ztn1)" height="36.2969" style="stroke: #000000; stroke-width: 1.5;" width="85" x="477" y="313"/><text fill="#000000" font-family="sans-serif" font-size="14" lengthAdjust="spacingAndGlyphs" textLength="65" x="487" y="335.9951">Definition</text><!--entity t211--><rect fill="#FF0000" filter="url(#f29ztn1)" height="52.5938" style="stroke: #000000; stroke-width: 1.5;" width="56" x="274.5" y="409"/><text fill="#000000" font-family="sans-serif" font-size="14" lengthAdjust="spacingAndGlyphs" textLength="36" x="284.5" y="431.9951">Term</text><text fill="#000000" font-family="sans-serif" font-size="14" font-style="italic" font-weight="bold" lengthAdjust="spacingAndGlyphs" textLength="8" x="298.5" y="448.292">c</text><!--entity nt211--><rect fill="#FFA500" filter="url(#f29ztn1)" height="52.5938" style="stroke: #000000; stroke-width: 1.5;" width="84" x="365.5" y="409"/><text fill="#000000" font-family="sans-serif" font-size="14" lengthAdjust="spacingAndGlyphs" textLength="64" x="375.5" y="431.9951">NonTerm</text><text fill="#000000" font-family="sans-serif" font-size="14" font-style="italic" font-weight="bold" lengthAdjust="spacingAndGlyphs" textLength="10" x="402.5" y="448.292">C</text><!--entity t221--><rect fill="#FF0000" filter="url(#f29ztn1)" height="52.5938" style="stroke: #000000; stroke-width: 1.5;" width="56" x="491.5" y="409"/><text fill="#000000" font-family="sans-serif" font-size="14" lengthAdjust="spacingAndGlyphs" textLength="36" x="501.5" y="431.9951">Term</text><text fill="#000000" font-family="sans-serif" font-size="14" font-style="italic" font-weight="bold" lengthAdjust="spacingAndGlyphs" textLength="10" x="514.5" y="448.292">d</text><path d="M215.495,44.241 C204.669,61.202 188.237,86.945 177.435,103.868 " fill="none" style="stroke: #A80036; stroke-width: 1.0;"/><path d="M146.247,140.156 C127.006,156.456 97.8251,181.175 75.8126,199.822 " fill="none" style="stroke: #A80036; stroke-width: 1.0;"/><path d="M166.5,140.388 C166.5,159.35 166.5,189.508 166.5,208.369 " fill="none" style="stroke: #A80036; stroke-width: 1.0;"/><path d="M166.5,244.888 C166.5,263.85 166.5,294.008 166.5,312.869 " fill="none" style="stroke: #A80036; stroke-width: 1.0;"/><path d="M147.921,349.156 C130.27,365.4555 103.5007,390.175 83.3075,408.8219 " fill="none" style="stroke: #A80036; stroke-width: 1.0;"/><path d="M167.857,349.388 C169.132,365.7231 171.055,390.3661 172.505,408.9385 " fill="none" style="stroke: #A80036; stroke-width: 1.0;"/><path d="M237.688,44.241 C248.695,61.202 265.401,86.945 276.383,103.868 " fill="none" style="stroke: #A80036; stroke-width: 1.0;"/><path d="M287.5,140.388 C287.5,156.723 287.5,181.366 287.5,199.939 " fill="none" style="stroke: #A80036; stroke-width: 1.0;"/><path d="M307.753,140.156 C330.089,159.077 365.819,189.345 388.181,208.288 " fill="none" style="stroke: #A80036; stroke-width: 1.0;"/><path d="M406.973,244.888 C405.308,263.85 402.66,294.008 401.004,312.869 " fill="none" style="stroke: #A80036; stroke-width: 1.0;"/><path d="M383.045,349.388 C367.586,365.7231 344.266,390.3661 326.69,408.9385 " fill="none" style="stroke: #A80036; stroke-width: 1.0;"/><path d="M400.857,349.388 C402.132,365.7231 404.055,390.3661 405.505,408.9385 " fill="none" style="stroke: #A80036; stroke-width: 1.0;"/><path d="M427.079,244.656 C447.569,263.577 480.346,293.845 500.86,312.788 " fill="none" style="stroke: #A80036; stroke-width: 1.0;"/><path d="M519.5,349.388 C519.5,365.7231 519.5,390.3661 519.5,408.9385 " fill="none" style="stroke: #A80036; stroke-width: 1.0;"/></g></svg>