<?xml version="1.0" encoding="UTF-8" standalone="no"?><svg xmlns="http://www.w3.org/2000/svg" xmlns:xlink="http://www.w3.org/1999/xlink" contentScriptType="application/ecmascript" contentStyleType="text/css" height="336px" preserveAspectRatio="none" style="width:382px;height:336px;" version="1.1" viewBox="0 0 382 336" width="382px" zoomAndPan="magnify"><defs><filter height="300%" id="fg852r2" width="300%" x="-1" y="-1"><feGaussianBlur result="blurOut" stdDeviation="2.0"/><feColorMatrix in="blurOut" result="blurOut2" type="matrix" values="0 0 0 0 0 0 0 0 0 0 0 0 0 0 0 0 0 0 .4 0"/><feOffset dx="4.0" dy="4.0" in="blurOut2" result="blurOut3"/><feBlend in="SourceGraphic" in2="blurOut3" mode="normal"/></filter></defs><g><!--cluster output--><rect fill="#FFFFFF" filter="url(#fg852r2)" height="304.5" style="stroke: #000000; stroke-width: 2.0;" width="125" x="250" y="24.5"/><text fill="#000000" font-family="sans-serif" font-size="14" font-weight="bold" lengthAdjust="spacingAndGlyphs" textLength="47" x="289" y="39.4951">Sortie</text><!--entity C1--><rect fill="#FEFECE" filter="url(#fg852r2)" height="36.2969" style="stroke: #000000; stroke-width: 1.5;" width="30" x="267" y="59.5"/><text fill="#000000" font-family="sans-serif" font-size="14" lengthAdjust="spacingAndGlyphs" textLength="10" x="277" y="82.4951">C</text><!--entity c--><rect fill="#FEFECE" filter="url(#fg852r2)" height="36.2969" style="stroke: #000000; stroke-width: 1.5;" width="28" x="266" y="172.5"/><text fill="#000000" font-family="sans-serif" font-size="14" lengthAdjust="spacingAndGlyphs" textLength="8" x="276" y="195.4951">c</text><!--entity C2--><rect fill="#FEFECE" filter="url(#fg852r2)" height="36.2969" style="stroke: #000000; stroke-width: 1.5;" width="30" x="329" y="172.5"/><text fill="#000000" font-family="sans-serif" font-size="14" lengthAdjust="spacingAndGlyphs" textLength="10" x="339" y="195.4951">C</text><!--entity d--><rect fill="#FEFECE" filter="url(#fg852r2)" height="36.2969" style="stroke: #000000; stroke-width: 1.5;" width="29" x="329.5" y="277"/><text fill="#000000" font-family="sans-serif" font-size="14" lengthAdjust="spacingAndGlyphs" textLength="9" x="339.5" y="299.9951">d</text><!--entity parser--><rect fill="#FEFECE" filter="url(#fg852r2)" height="36.2969" style="stroke: #000000; stroke-width: 1.5;" width="83" x="107.5" y="172.5"/><text fill="#000000" font-family="sans-serif" font-size="14" font-style="italic" lengthAdjust="spacingAndGlyphs" textLength="42" x="117.5" y="195.4951">Parser</text><text fill="#000000" font-family="sans-serif" font-size="14" lengthAdjust="spacingAndGlyphs" textLength="17" x="163.5" y="195.4951">LR</text><!--entity stack--><rect fill="#FFFF00" filter="url(#fg852r2)" height="52.5938" style="stroke: #000000; stroke-width: 1.5;" width="98" x="29" y="51"/><text fill="#000000" font-family="sans-serif" font-size="14" font-style="italic" lengthAdjust="spacingAndGlyphs" textLength="78" x="39" y="73.9951">State Stack</text><text fill="#000000" font-family="sans-serif" font-size="14" font-weight="bold" lengthAdjust="spacingAndGlyphs" textLength="37" x="59.5" y="90.292">[3,0]</text><!--entity input--><rect fill="#FEFECE" filter="url(#fg852r2)" height="52.5938" style="stroke: #000000; stroke-width: 1.5;" width="66" x="6" y="164"/><text fill="#000000" font-family="sans-serif" font-size="14" lengthAdjust="spacingAndGlyphs" textLength="46" x="16" y="186.9951">Entrée</text><text fill="#000000" font-family="sans-serif" font-size="14" font-weight="bold" lengthAdjust="spacingAndGlyphs" textLength="20" x="29" y="203.292">d$</text><!--entity Table--><ellipse cx="181" cy="69.5" fill="#FEFECE" filter="url(#fg852r2)" rx="8" ry="8" style="stroke: #A80036; stroke-width: 2.0;"/><text fill="#000000" font-family="sans-serif" font-size="14" lengthAdjust="spacingAndGlyphs" textLength="38" x="162" y="91.4951">Table</text><path d="M281.688,95.844 C281.312,116.697 280.685,151.479 280.31,172.278 " fill="none" style="stroke: #A80036; stroke-width: 1.0;"/><path d="M344,208.888 C344,227.85 344,258.0081 344,276.8691 " fill="none" style="stroke: #A80036; stroke-width: 1.0;"/><path d="M291.688,95.844 C303.335,116.697 322.763,151.479 334.381,172.278 " fill="none" style="stroke: #A80036; stroke-width: 1.0;"/><path d="M174.879,99.731 C168.798,120.826 159.588,152.773 153.952,172.324 " fill="none" style="stroke: #A80036; stroke-width: 1.0;"/><polygon fill="#A80036" points="176.278,94.878,169.9405,102.4169,174.8923,99.6822,177.6271,104.634,176.278,94.878" style="stroke: #A80036; stroke-width: 1.0;"/><path d="M72.0859,190.5 C82.064,190.5 92.0421,190.5 102.0202,190.5 " fill="none" style="stroke: #A80036; stroke-width: 1.0;"/><polygon fill="#A80036" points="107.238,190.5,98.238,186.5,102.238,190.5,98.238,194.5,107.238,190.5" style="stroke: #A80036; stroke-width: 1.0;"/><path d="M97.1918,108.504 C110.243,128.908 127.052,155.187 137.926,172.187 " fill="none" style="stroke: #A80036; stroke-width: 1.0;"/><polygon fill="#A80036" points="94.4673,104.245,95.9474,113.982,97.1616,108.457,102.6866,109.6712,94.4673,104.245" style="stroke: #A80036; stroke-width: 1.0;"/></g></svg>