<?xml version="1.0" encoding="UTF-8" standalone="no"?><svg xmlns="http://www.w3.org/2000/svg" xmlns:xlink="http://www.w3.org/1999/xlink" contentScriptType="application/ecmascript" contentStyleType="text/css" height="308px" preserveAspectRatio="none" style="width:243px;height:308px;" version="1.1" viewBox="0 0 243 308" width="243px" zoomAndPan="magnify"><defs><filter height="300%" id="fvuef9b" width="300%" x="-1" y="-1"><feGaussianBlur result="blurOut" stdDeviation="2.0"/><feColorMatrix in="blurOut" result="blurOut2" type="matrix" values="0 0 0 0 0 0 0 0 0 0 0 0 0 0 0 0 0 0 .4 0"/><feOffset dx="4.0" dy="4.0" in="blurOut2" result="blurOut3"/><feBlend in="SourceGraphic" in2="blurOut3" mode="normal"/></filter></defs><g><!--cluster output--><rect fill="#FFFFFF" filter="url(#fvuef9b)" height="103" style="stroke: #000000; stroke-width: 2.0;" width="95" x="141" y="198"/><text fill="#000000" font-family="sans-serif" font-size="14" font-weight="bold" lengthAdjust="spacingAndGlyphs" textLength="47" x="165" y="212.9951">Sortie</text><!--entity c--><rect fill="#FFFF00" filter="url(#fvuef9b)" height="36.2969" style="stroke: #000000; stroke-width: 1.5;" width="28" x="184" y="241"/><text fill="#000000" font-family="sans-serif" font-size="14" lengthAdjust="spacingAndGlyphs" textLength="8" x="194" y="263.9951">c</text><!--entity parser--><rect fill="#FEFECE" filter="url(#fvuef9b)" height="36.2969" style="stroke: #000000; stroke-width: 1.5;" width="83" x="107.5" y="129.5"/><text fill="#000000" font-family="sans-serif" font-size="14" font-style="italic" lengthAdjust="spacingAndGlyphs" textLength="42" x="117.5" y="152.4951">Parser</text><text fill="#000000" font-family="sans-serif" font-size="14" lengthAdjust="spacingAndGlyphs" textLength="17" x="163.5" y="152.4951">LR</text><!--entity stack--><rect fill="#FFFF00" filter="url(#fvuef9b)" height="52.5938" style="stroke: #000000; stroke-width: 1.5;" width="98" x="49" y="8"/><text fill="#000000" font-family="sans-serif" font-size="14" font-style="italic" lengthAdjust="spacingAndGlyphs" textLength="78" x="59" y="30.9951">State Stack</text><text fill="#000000" font-family="sans-serif" font-size="14" font-weight="bold" lengthAdjust="spacingAndGlyphs" textLength="37" x="79.5" y="47.292">[1,0]</text><!--entity input--><rect fill="#FFFF00" filter="url(#fvuef9b)" height="52.5938" style="stroke: #000000; stroke-width: 1.5;" width="66" x="6" y="121"/><text fill="#000000" font-family="sans-serif" font-size="14" lengthAdjust="spacingAndGlyphs" textLength="46" x="16" y="143.9951">Entrée</text><text fill="#000000" font-family="sans-serif" font-size="14" font-weight="bold" lengthAdjust="spacingAndGlyphs" textLength="30" x="24" y="160.292">dd$</text><!--entity Table--><ellipse cx="201" cy="26.5" fill="#FEFECE" filter="url(#fvuef9b)" rx="8" ry="8" style="stroke: #A80036; stroke-width: 2.0;"/><text fill="#000000" font-family="sans-serif" font-size="14" lengthAdjust="spacingAndGlyphs" textLength="38" x="182" y="48.4951">Table</text><path d="M191.179,56.464 C181.298,77.556 166.244,109.691 157.047,129.324 " fill="none" style="stroke: #A80036; stroke-width: 1.0;"/><polygon fill="#A80036" points="193.327,51.878,185.8868,58.3312,191.2059,56.4058,193.1313,61.7249,193.327,51.878" style="stroke: #A80036; stroke-width: 1.0;"/><path d="M72.0859,147.5 C82.064,147.5 92.0421,147.5 102.0202,147.5 " fill="none" style="stroke: #A80036; stroke-width: 1.0;"/><polygon fill="#A80036" points="107.238,147.5,98.238,143.5,102.238,147.5,98.238,151.5,107.238,147.5" style="stroke: #A80036; stroke-width: 1.0;"/><path d="M149,165.609 C149,173.188 149,182.6321 149,192.5643 C149,193.8059 149,195.055 149,196.3091 C149,196.6226 149,196.9365 149,197.2506 C149,197.4076 149,197.5647 149,197.7219 " fill="none" style="stroke: #A80036; stroke-width: 1.0;"/><polygon fill="#A80036" points="149,197.7219,153,188.7219,149,192.7219,145,188.7219,149,197.7219" style="stroke: #A80036; stroke-width: 1.0;"/><path d="M112.022,66.018 C121.362,86.347 133.3,112.329 141.045,129.187 " fill="none" style="stroke: #A80036; stroke-width: 1.0;"/><polygon fill="#A80036" points="109.829,61.245,109.9541,71.0931,111.9176,65.7879,117.2228,67.7513,109.829,61.245" style="stroke: #A80036; stroke-width: 1.0;"/></g></svg>