<?xml version="1.0" encoding="UTF-8" standalone="no"?><svg xmlns="http://www.w3.org/2000/svg" xmlns:xlink="http://www.w3.org/1999/xlink" contentScriptType="application/ecmascript" contentStyleType="text/css" height="336px" preserveAspectRatio="none" style="width:383px;height:336px;" version="1.1" viewBox="0 0 383 336" width="383px" zoomAndPan="magnify"><defs><filter height="300%" id="f4z9o1q" width="300%" x="-1" y="-1"><feGaussianBlur result="blurOut" stdDeviation="2.0"/><feColorMatrix in="blurOut" result="blurOut2" type="matrix" values="0 0 0 0 0 0 0 0 0 0 0 0 0 0 0 0 0 0 .4 0"/><feOffset dx="4.0" dy="4.0" in="blurOut2" result="blurOut3"/><feBlend in="SourceGraphic" in2="blurOut3" mode="normal"/></filter></defs><g><!--cluster output--><rect fill="#FFFFFF" filter="url(#f4z9o1q)" height="304.5" style="stroke: #000000; stroke-width: 2.0;" width="127" x="249" y="24.5"/><text fill="#000000" font-family="sans-serif" font-size="14" font-weight="bold" lengthAdjust="spacingAndGlyphs" textLength="47" x="289" y="39.4951">Sortie</text><!--entity C1--><rect fill="#FEFECE" filter="url(#f4z9o1q)" height="36.2969" style="stroke: #000000; stroke-width: 1.5;" width="30" x="330" y="59.5"/><text fill="#000000" font-family="sans-serif" font-size="14" lengthAdjust="spacingAndGlyphs" textLength="10" x="340" y="82.4951">C</text><!--entity c--><rect fill="#FEFECE" filter="url(#f4z9o1q)" height="36.2969" style="stroke: #000000; stroke-width: 1.5;" width="28" x="267" y="172.5"/><text fill="#000000" font-family="sans-serif" font-size="14" lengthAdjust="spacingAndGlyphs" textLength="8" x="277" y="195.4951">c</text><!--entity C2--><rect fill="#FEFECE" filter="url(#f4z9o1q)" height="36.2969" style="stroke: #000000; stroke-width: 1.5;" width="30" x="330" y="172.5"/><text fill="#000000" font-family="sans-serif" font-size="14" lengthAdjust="spacingAndGlyphs" textLength="10" x="340" y="195.4951">C</text><!--entity d--><rect fill="#FEFECE" filter="url(#f4z9o1q)" height="36.2969" style="stroke: #000000; stroke-width: 1.5;" width="29" x="330.5" y="277"/><text fill="#000000" font-family="sans-serif" font-size="14" lengthAdjust="spacingAndGlyphs" textLength="9" x="340.5" y="299.9951">d</text><!--entity d2--><rect fill="#FFFF00" filter="url(#f4z9o1q)" height="36.2969" style="stroke: #000000; stroke-width: 1.5;" width="29" x="265.5" y="59.5"/><text fill="#000000" font-family="sans-serif" font-size="14" lengthAdjust="spacingAndGlyphs" textLength="9" x="275.5" y="82.4951">d</text><!--entity parser--><rect fill="#FEFECE" filter="url(#f4z9o1q)" height="36.2969" style="stroke: #000000; stroke-width: 1.5;" width="83" x="107.5" y="172.5"/><text fill="#000000" font-family="sans-serif" font-size="14" font-style="italic" lengthAdjust="spacingAndGlyphs" textLength="42" x="117.5" y="195.4951">Parser</text><text fill="#000000" font-family="sans-serif" font-size="14" lengthAdjust="spacingAndGlyphs" textLength="17" x="163.5" y="195.4951">LR</text><!--entity stack--><rect fill="#FFFF00" filter="url(#f4z9o1q)" height="52.5938" style="stroke: #000000; stroke-width: 1.5;" width="98" x="28" y="51"/><text fill="#000000" font-family="sans-serif" font-size="14" font-style="italic" lengthAdjust="spacingAndGlyphs" textLength="78" x="38" y="73.9951">State Stack</text><text fill="#000000" font-family="sans-serif" font-size="14" font-weight="bold" lengthAdjust="spacingAndGlyphs" textLength="52" x="51" y="90.292">[2,3,0]</text><!--entity input--><rect fill="#FFFF00" filter="url(#f4z9o1q)" height="52.5938" style="stroke: #000000; stroke-width: 1.5;" width="66" x="6" y="164"/><text fill="#000000" font-family="sans-serif" font-size="14" lengthAdjust="spacingAndGlyphs" textLength="46" x="16" y="186.9951">Entrée</text><text fill="#000000" font-family="sans-serif" font-size="14" font-weight="bold" lengthAdjust="spacingAndGlyphs" textLength="10" x="34" y="203.292">$</text><!--entity Table--><ellipse cx="180" cy="69.5" fill="#FEFECE" filter="url(#f4z9o1q)" rx="8" ry="8" style="stroke: #A80036; stroke-width: 2.0;"/><text fill="#000000" font-family="sans-serif" font-size="14" lengthAdjust="spacingAndGlyphs" textLength="38" x="161" y="91.4951">Table</text><path d="M335,95.844 C322.977,116.697 302.922,151.479 290.93,172.278 " fill="none" style="stroke: #A80036; stroke-width: 1.0;"/><path d="M345,208.888 C345,227.85 345,258.0081 345,276.8691 " fill="none" style="stroke: #A80036; stroke-width: 1.0;"/><path d="M345,95.844 C345,116.697 345,151.479 345,172.278 " fill="none" style="stroke: #A80036; stroke-width: 1.0;"/><path d="M174.071,99.731 C168.179,120.826 159.257,152.773 153.797,172.324 " fill="none" style="stroke: #A80036; stroke-width: 1.0;"/><polygon fill="#A80036" points="175.426,94.878,169.1514,102.4694,174.0803,99.6935,176.8562,104.6225,175.426,94.878" style="stroke: #A80036; stroke-width: 1.0;"/><path d="M72.0859,190.5 C82.064,190.5 92.0421,190.5 102.0202,190.5 " fill="none" style="stroke: #A80036; stroke-width: 1.0;"/><polygon fill="#A80036" points="107.238,190.5,98.238,186.5,102.238,190.5,98.238,194.5,107.238,190.5" style="stroke: #A80036; stroke-width: 1.0;"/><path d="M96.4621,108.504 C109.697,128.908 126.743,155.187 137.77,172.187 " fill="none" style="stroke: #A80036; stroke-width: 1.0;"/><polygon fill="#A80036" points="93.6992,104.245,95.2418,113.9723,96.4205,108.4396,101.9532,109.6183,93.6992,104.245" style="stroke: #A80036; stroke-width: 1.0;"/></g></svg>