<?xml version="1.0" encoding="UTF-8" standalone="no"?><svg xmlns="http://www.w3.org/2000/svg" xmlns:xlink="http://www.w3.org/1999/xlink" contentScriptType="application/ecmascript" contentStyleType="text/css" height="241px" preserveAspectRatio="none" style="width:398px;height:241px;" version="1.1" viewBox="0 0 398 241" width="398px" zoomAndPan="magnify"><defs><filter height="300%" id="ff9gea3" width="300%" x="-1" y="-1"><feGaussianBlur result="blurOut" stdDeviation="2.0"/><feColorMatrix in="blurOut" result="blurOut2" type="matrix" values="0 0 0 0 0 0 0 0 0 0 0 0 0 0 0 0 0 0 .4 0"/><feOffset dx="4.0" dy="4.0" in="blurOut2" result="blurOut3"/><feBlend in="SourceGraphic" in2="blurOut3" mode="normal"/></filter></defs><g><!--entity parser1--><rect fill="#FEFECE" filter="url(#ff9gea3)" height="36.2969" style="stroke: #000000; stroke-width: 1.5;" width="62" x="6" y="102"/><text fill="#000000" font-family="sans-serif" font-size="14" font-style="italic" lengthAdjust="spacingAndGlyphs" textLength="42" x="16" y="124.9951">Parser</text><!--entity parser2--><rect fill="#FEFECE" filter="url(#ff9gea3)" height="36.2969" style="stroke: #000000; stroke-width: 1.5;" width="62" x="264" y="198"/><text fill="#000000" font-family="sans-serif" font-size="14" font-style="italic" lengthAdjust="spacingAndGlyphs" textLength="42" x="274" y="220.9951">Parser</text><!--entity lexer2--><rect fill="#FEFECE" filter="url(#ff9gea3)" height="36.2969" style="stroke: #000000; stroke-width: 1.5;" width="59" x="174.5" y="102"/><text fill="#000000" font-family="sans-serif" font-size="14" font-style="italic" lengthAdjust="spacingAndGlyphs" textLength="39" x="184.5" y="124.9951">Lexer</text><!--entity Texte1--><ellipse cx="37" cy="17" fill="#FEFECE" filter="url(#ff9gea3)" rx="8" ry="8" style="stroke: #A80036; stroke-width: 2.0;"/><text fill="#000000" font-family="sans-serif" font-size="14" lengthAdjust="spacingAndGlyphs" textLength="48" x="13" y="38.9951">Texte1</text><!--entity AST1--><ellipse cx="121" cy="112" fill="#FEFECE" filter="url(#ff9gea3)" rx="8" ry="8" style="stroke: #A80036; stroke-width: 2.0;"/><text fill="#000000" font-family="sans-serif" font-size="14" lengthAdjust="spacingAndGlyphs" textLength="36" x="103" y="133.9951">AST1</text><!--entity Texte2--><ellipse cx="204" cy="17" fill="#FEFECE" filter="url(#ff9gea3)" rx="8" ry="8" style="stroke: #A80036; stroke-width: 2.0;"/><text fill="#000000" font-family="sans-serif" font-size="14" lengthAdjust="spacingAndGlyphs" textLength="48" x="180" y="38.9951">Texte2</text><!--entity Tokens--><ellipse cx="295" cy="112" fill="#FEFECE" filter="url(#ff9gea3)" rx="8" ry="8" style="stroke: #A80036; stroke-width: 2.0;"/><text fill="#000000" font-family="sans-serif" font-size="14" lengthAdjust="spacingAndGlyphs" textLength="52" x="269" y="133.9951">Tokens</text><!--entity AST2--><ellipse cx="379" cy="208" fill="#FEFECE" filter="url(#ff9gea3)" rx="8" ry="8" style="stroke: #A80036; stroke-width: 2.0;"/><text fill="#000000" font-family="sans-serif" font-size="14" lengthAdjust="spacingAndGlyphs" textLength="36" x="361" y="229.9951">AST2</text><path d="M37,42.199 C37,57.291 37,79.926 37,96.717 " fill="none" style="stroke: #A80036; stroke-width: 1.0;"/><polygon fill="#A80036" points="37,101.725,41,92.725,37,96.725,33,92.725,37,101.725" style="stroke: #A80036; stroke-width: 1.0;"/><path d="M68.1719,120 C78.0127,120 87.8534,120 97.6942,120 " fill="none" style="stroke: #A80036; stroke-width: 1.0;"/><polygon fill="#A80036" points="102.8403,120,93.8403,116,97.8403,120,93.8403,124,102.8403,120" style="stroke: #A80036; stroke-width: 1.0;"/><path d="M204,42.199 C204,57.291 204,79.926 204,96.717 " fill="none" style="stroke: #A80036; stroke-width: 1.0;"/><polygon fill="#A80036" points="204,101.725,208,92.725,204,96.725,200,92.725,204,101.725" style="stroke: #A80036; stroke-width: 1.0;"/><path d="M233.504,120 C243.459,120 253.415,120 263.37,120 " fill="none" style="stroke: #A80036; stroke-width: 1.0;"/><polygon fill="#A80036" points="268.576,120,259.576,116,263.576,120,259.576,124,268.576,120" style="stroke: #A80036; stroke-width: 1.0;"/><path d="M295,137.3736 C295,152.7231 295,175.7919 295,192.7947 " fill="none" style="stroke: #A80036; stroke-width: 1.0;"/><polygon fill="#A80036" points="295,197.8614,299,188.8614,295,192.8614,291,188.8614,295,197.8614" style="stroke: #A80036; stroke-width: 1.0;"/><path d="M326.172,216 C336.013,216 345.853,216 355.694,216 " fill="none" style="stroke: #A80036; stroke-width: 1.0;"/><polygon fill="#A80036" points="360.84,216,351.84,212,355.84,216,351.84,220,360.84,216" style="stroke: #A80036; stroke-width: 1.0;"/></g></svg>