<?xml version="1.0" encoding="UTF-8" standalone="no"?><svg xmlns="http://www.w3.org/2000/svg" xmlns:xlink="http://www.w3.org/1999/xlink" contentScriptType="application/ecmascript" contentStyleType="text/css" height="180px" preserveAspectRatio="none" style="width:293px;height:180px;" version="1.1" viewBox="0 0 293 180" width="293px" zoomAndPan="magnify"><defs><filter height="300%" id="feui3un" width="300%" x="-1" y="-1"><feGaussianBlur result="blurOut" stdDeviation="2.0"/><feColorMatrix in="blurOut" result="blurOut2" type="matrix" values="0 0 0 0 0 0 0 0 0 0 0 0 0 0 0 0 0 0 .4 0"/><feOffset dx="4.0" dy="4.0" in="blurOut2" result="blurOut3"/><feBlend in="SourceGraphic" in2="blurOut3" mode="normal"/></filter></defs><g><!--entity output--><rect fill="#FFFFFF" filter="url(#feui3un)" height="36.2969" style="stroke: #000000; stroke-width: 1.5;" width="60" x="226" y="129.5"/><text fill="#000000" font-family="sans-serif" font-size="14" lengthAdjust="spacingAndGlyphs" textLength="40" x="236" y="152.4951">Sortie</text><!--entity parser--><rect fill="#FEFECE" filter="url(#feui3un)" height="36.2969" style="stroke: #000000; stroke-width: 1.5;" width="83" x="107.5" y="129.5"/><text fill="#000000" font-family="sans-serif" font-size="14" font-style="italic" lengthAdjust="spacingAndGlyphs" textLength="42" x="117.5" y="152.4951">Parser</text><text fill="#000000" font-family="sans-serif" font-size="14" lengthAdjust="spacingAndGlyphs" textLength="17" x="163.5" y="152.4951">LR</text><!--entity stack--><rect fill="#FEFECE" filter="url(#feui3un)" height="52.5938" style="stroke: #000000; stroke-width: 1.5;" width="98" x="48" y="8"/><text fill="#000000" font-family="sans-serif" font-size="14" font-style="italic" lengthAdjust="spacingAndGlyphs" textLength="78" x="58" y="30.9951">State Stack</text><text fill="#000000" font-family="sans-serif" font-size="14" font-weight="bold" lengthAdjust="spacingAndGlyphs" textLength="22" x="86" y="47.292">[0]</text><!--entity input--><rect fill="#FEFECE" filter="url(#feui3un)" height="52.5938" style="stroke: #000000; stroke-width: 1.5;" width="66" x="6" y="121"/><text fill="#000000" font-family="sans-serif" font-size="14" lengthAdjust="spacingAndGlyphs" textLength="46" x="16" y="143.9951">Entrée</text><text fill="#000000" font-family="sans-serif" font-size="14" font-weight="bold" lengthAdjust="spacingAndGlyphs" textLength="39" x="19.5" y="160.292">cdd$</text><!--entity Table--><ellipse cx="200" cy="26.5" fill="#FEFECE" filter="url(#feui3un)" rx="8" ry="8" style="stroke: #A80036; stroke-width: 2.0;"/><text fill="#000000" font-family="sans-serif" font-size="14" lengthAdjust="spacingAndGlyphs" textLength="38" x="181" y="48.4951">Table</text><path d="M190.368,56.464 C180.677,77.5559 165.912,109.691 156.892,129.3236 " fill="none" style="stroke: #A80036; stroke-width: 1.0;"/><polygon fill="#A80036" points="192.475,51.878,185.0829,58.3862,190.3876,56.4214,192.3524,61.7261,192.475,51.878" style="stroke: #A80036; stroke-width: 1.0;"/><path d="M72.0859,147.5 C82.064,147.5 92.0421,147.5 102.0202,147.5 " fill="none" style="stroke: #A80036; stroke-width: 1.0;"/><polygon fill="#A80036" points="107.238,147.5,98.238,143.5,102.238,147.5,98.238,151.5,107.238,147.5" style="stroke: #A80036; stroke-width: 1.0;"/><path d="M190.797,147.5 C200.774,147.5 210.751,147.5 220.728,147.5 " fill="none" style="stroke: #A80036; stroke-width: 1.0;"/><polygon fill="#A80036" points="225.945,147.5,216.945,143.5,220.945,147.5,216.945,151.5,225.945,147.5" style="stroke: #A80036; stroke-width: 1.0;"/><path d="M111.296,66.018 C120.82,86.3474 132.992,112.329 140.889,129.1867 " fill="none" style="stroke: #A80036; stroke-width: 1.0;"/><polygon fill="#A80036" points="109.061,61.245,109.2579,71.0919,111.1826,65.7726,116.502,67.6973,109.061,61.245" style="stroke: #A80036; stroke-width: 1.0;"/></g></svg>