<?xml version="1.0" encoding="UTF-8" standalone="no"?><svg xmlns="http://www.w3.org/2000/svg" xmlns:xlink="http://www.w3.org/1999/xlink" contentScriptType="application/ecmascript" contentStyleType="text/css" height="243px" preserveAspectRatio="none" style="width:293px;height:243px;" version="1.1" viewBox="0 0 293 243" width="293px" zoomAndPan="magnify"><defs><filter height="300%" id="f38fg3z" width="300%" x="-1" y="-1"><feGaussianBlur result="blurOut" stdDeviation="2.0"/><feColorMatrix in="blurOut" result="blurOut2" type="matrix" values="0 0 0 0 0 0 0 0 0 0 0 0 0 0 0 0 0 0 .4 0"/><feOffset dx="4.0" dy="4.0" in="blurOut2" result="blurOut3"/><feBlend in="SourceGraphic" in2="blurOut3" mode="normal"/></filter></defs><g><!--entity parser--><rect fill="#F8F8F8" filter="url(#f38fg3z)" height="36.2969" style="stroke: #000000; stroke-width: 1.5;" width="83" x="107.5" y="104"/><text fill="#000000" font-family="sans-serif" font-size="14" font-style="italic" lengthAdjust="spacingAndGlyphs" textLength="42" x="117.5" y="126.9951">Parser</text><text fill="#000000" font-family="sans-serif" font-size="14" lengthAdjust="spacingAndGlyphs" textLength="17" x="163.5" y="126.9951">LR</text><!--entity stack--><rect fill="#F8F8F8" filter="url(#f38fg3z)" height="36.2969" style="stroke: #000000; stroke-width: 1.5;" width="98" x="100" y="200"/><text fill="#000000" font-family="sans-serif" font-size="14" font-style="italic" lengthAdjust="spacingAndGlyphs" textLength="78" x="110" y="222.9951">State Stack</text><!--entity input--><rect fill="#F8F8F8" filter="url(#f38fg3z)" height="36.2969" style="stroke: #000000; stroke-width: 1.5;" width="66" x="6" y="104"/><text fill="#000000" font-family="sans-serif" font-size="14" lengthAdjust="spacingAndGlyphs" textLength="46" x="16" y="126.9951">Entrée</text><!--entity output--><rect fill="#F8F8F8" filter="url(#f38fg3z)" height="36.2969" style="stroke: #000000; stroke-width: 1.5;" width="60" x="226" y="104"/><text fill="#000000" font-family="sans-serif" font-size="14" lengthAdjust="spacingAndGlyphs" textLength="40" x="236" y="126.9951">Sortie</text><!--entity table--><rect fill="#F8F8F8" filter="url(#f38fg3z)" height="36.2969" style="stroke: #000000; stroke-width: 1.5;" width="95" x="101.5" y="8"/><text fill="#000000" font-family="sans-serif" font-size="14" lengthAdjust="spacingAndGlyphs" textLength="75" x="111.5" y="30.9951">Table LALR</text><path d="M149,49.662 C149,66.34 149,88.664 149,103.868 " fill="none" style="stroke: #383838; stroke-width: 1.0;"/><polygon fill="#383838" points="149,44.241,145,53.241,149,49.241,153,53.241,149,44.241" style="stroke: #383838; stroke-width: 1.0;"/><path d="M72.0859,122 C82.064,122 92.0421,122 102.0202,122 " fill="none" style="stroke: #383838; stroke-width: 1.0;"/><polygon fill="#383838" points="107.238,122,98.238,118,102.238,122,98.238,126,107.238,122" style="stroke: #383838; stroke-width: 1.0;"/><path d="M190.797,122 C200.774,122 210.751,122 220.728,122 " fill="none" style="stroke: #383838; stroke-width: 1.0;"/><polygon fill="#383838" points="225.945,122,216.945,118,220.945,122,216.945,126,225.945,122" style="stroke: #383838; stroke-width: 1.0;"/><path d="M149,140.241 C149,155.4791 149,177.8069 149,194.4576 " fill="none" style="stroke: #383838; stroke-width: 1.0;"/><polygon fill="#383838" points="149,199.8683,153,190.8683,149,194.8683,145,190.8683,149,199.8683" style="stroke: #383838; stroke-width: 1.0;"/></g></svg>