<?xml version="1.0" encoding="UTF-8" standalone="no"?><svg xmlns="http://www.w3.org/2000/svg" xmlns:xlink="http://www.w3.org/1999/xlink" contentScriptType="application/ecmascript" contentStyleType="text/css" height="432px" preserveAspectRatio="none" style="width:449px;height:432px;" version="1.1" viewBox="0 0 449 432" width="449px" zoomAndPan="magnify"><defs><filter height="300%" id="ff1qqj1" width="300%" x="-1" y="-1"><feGaussianBlur result="blurOut" stdDeviation="2.0"/><feColorMatrix in="blurOut" result="blurOut2" type="matrix" values="0 0 0 0 0 0 0 0 0 0 0 0 0 0 0 0 0 0 .4 0"/><feOffset dx="4.0" dy="4.0" in="blurOut2" result="blurOut3"/><feBlend in="SourceGraphic" in2="blurOut3" mode="normal"/></filter></defs><g><!--cluster output--><rect fill="#FFFFFF" filter="url(#ff1qqj1)" height="400.5" style="stroke: #000000; stroke-width: 2.0;" width="190" x="252" y="24.5"/><text fill="#000000" font-family="sans-serif" font-size="14" font-weight="bold" lengthAdjust="spacingAndGlyphs" textLength="47" x="323.5" y="39.4951">Sortie</text><!--entity C1--><rect fill="#FEFECE" filter="url(#ff1qqj1)" height="36.2969" style="stroke: #000000; stroke-width: 1.5;" width="30" x="331" y="172.5"/><text fill="#000000" font-family="sans-serif" font-size="14" lengthAdjust="spacingAndGlyphs" textLength="10" x="341" y="195.4951">C</text><!--entity c--><rect fill="#FEFECE" filter="url(#ff1qqj1)" height="36.2969" style="stroke: #000000; stroke-width: 1.5;" width="28" x="268" y="277"/><text fill="#000000" font-family="sans-serif" font-size="14" lengthAdjust="spacingAndGlyphs" textLength="8" x="278" y="299.9951">c</text><!--entity C2--><rect fill="#FEFECE" filter="url(#ff1qqj1)" height="36.2969" style="stroke: #000000; stroke-width: 1.5;" width="30" x="331" y="277"/><text fill="#000000" font-family="sans-serif" font-size="14" lengthAdjust="spacingAndGlyphs" textLength="10" x="341" y="299.9951">C</text><!--entity d--><rect fill="#FEFECE" filter="url(#ff1qqj1)" height="36.2969" style="stroke: #000000; stroke-width: 1.5;" width="29" x="331.5" y="373"/><text fill="#000000" font-family="sans-serif" font-size="14" lengthAdjust="spacingAndGlyphs" textLength="9" x="341.5" y="395.9951">d</text><!--entity d2--><rect fill="#FEFECE" filter="url(#ff1qqj1)" height="36.2969" style="stroke: #000000; stroke-width: 1.5;" width="29" x="396.5" y="277"/><text fill="#000000" font-family="sans-serif" font-size="14" lengthAdjust="spacingAndGlyphs" textLength="9" x="406.5" y="299.9951">d</text><!--entity C3--><rect fill="#FEFECE" filter="url(#ff1qqj1)" height="36.2969" style="stroke: #000000; stroke-width: 1.5;" width="30" x="396" y="172.5"/><text fill="#000000" font-family="sans-serif" font-size="14" lengthAdjust="spacingAndGlyphs" textLength="10" x="406" y="195.4951">C</text><!--entity S--><rect fill="#FEFECE" filter="url(#ff1qqj1)" height="36.2969" style="stroke: #000000; stroke-width: 1.5;" width="29" x="363.5" y="59.5"/><text fill="#000000" font-family="sans-serif" font-size="14" lengthAdjust="spacingAndGlyphs" textLength="9" x="373.5" y="82.4951">S</text><!--entity parser--><rect fill="#FEFECE" filter="url(#ff1qqj1)" height="36.2969" style="stroke: #000000; stroke-width: 1.5;" width="83" x="107.5" y="172.5"/><text fill="#000000" font-family="sans-serif" font-size="14" font-style="italic" lengthAdjust="spacingAndGlyphs" textLength="42" x="117.5" y="195.4951">Parser</text><text fill="#000000" font-family="sans-serif" font-size="14" lengthAdjust="spacingAndGlyphs" textLength="17" x="163.5" y="195.4951">LR</text><!--entity stack--><rect fill="#FFFF00" filter="url(#ff1qqj1)" height="52.5938" style="stroke: #000000; stroke-width: 1.5;" width="98" x="54" y="51"/><text fill="#000000" font-family="sans-serif" font-size="14" font-style="italic" lengthAdjust="spacingAndGlyphs" textLength="78" x="64" y="73.9951">State Stack</text><text fill="#000000" font-family="sans-serif" font-size="14" font-weight="bold" lengthAdjust="spacingAndGlyphs" textLength="37" x="84.5" y="90.292">[4,0]</text><!--entity input--><rect fill="#FEFECE" filter="url(#ff1qqj1)" height="52.5938" style="stroke: #000000; stroke-width: 1.5;" width="66" x="6" y="164"/><text fill="#000000" font-family="sans-serif" font-size="14" lengthAdjust="spacingAndGlyphs" textLength="46" x="16" y="186.9951">Entrée</text><text fill="#000000" font-family="sans-serif" font-size="14" font-weight="bold" lengthAdjust="spacingAndGlyphs" textLength="10" x="34" y="203.292">$</text><!--entity Table--><ellipse cx="206" cy="69.5" fill="#FEFECE" filter="url(#ff1qqj1)" rx="8" ry="8" style="stroke: #A80036; stroke-width: 2.0;"/><text fill="#000000" font-family="sans-serif" font-size="14" lengthAdjust="spacingAndGlyphs" textLength="38" x="187" y="91.4951">Table</text><path d="M335.143,208.888 C323.303,227.85 304.473,258.008 292.696,276.869 " fill="none" style="stroke: #A80036; stroke-width: 1.0;"/><path d="M346,313.241 C346,330.202 346,355.9455 346,372.8683 " fill="none" style="stroke: #A80036; stroke-width: 1.0;"/><path d="M346,208.888 C346,227.85 346,258.008 346,276.869 " fill="none" style="stroke: #A80036; stroke-width: 1.0;"/><path d="M411,208.888 C411,227.85 411,258.008 411,276.869 " fill="none" style="stroke: #A80036; stroke-width: 1.0;"/><path d="M373,95.844 C366.988,116.697 356.961,151.479 350.965,172.278 " fill="none" style="stroke: #A80036; stroke-width: 1.0;"/><path d="M383.156,95.844 C389.356,116.697 399.697,151.479 405.88,172.278 " fill="none" style="stroke: #A80036; stroke-width: 1.0;"/><path d="M195.235,99.464 C184.404,120.556 167.902,152.691 157.82,172.324 " fill="none" style="stroke: #A80036; stroke-width: 1.0;"/><polygon fill="#A80036" points="197.589,94.878,189.9188,101.056,195.3045,99.3256,197.0349,104.7113,197.589,94.878" style="stroke: #A80036; stroke-width: 1.0;"/><path d="M72.0859,190.5 C82.064,190.5 92.0421,190.5 102.0202,190.5 " fill="none" style="stroke: #A80036; stroke-width: 1.0;"/><polygon fill="#A80036" points="107.238,190.5,98.238,186.5,102.238,190.5,98.238,194.5,107.238,190.5" style="stroke: #A80036; stroke-width: 1.0;"/><path d="M115.647,109.018 C124.072,129.347 134.839,155.329 141.825,172.187 " fill="none" style="stroke: #A80036; stroke-width: 1.0;"/><polygon fill="#A80036" points="113.669,104.245,113.4198,114.0907,115.5835,108.864,120.8102,111.0276,113.669,104.245" style="stroke: #A80036; stroke-width: 1.0;"/></g></svg>