<?xml version="1.0" encoding="UTF-8" standalone="no"?><svg xmlns="http://www.w3.org/2000/svg" xmlns:xlink="http://www.w3.org/1999/xlink" contentScriptType="application/ecmascript" contentStyleType="text/css" height="243px" preserveAspectRatio="none" style="width:329px;height:243px;" version="1.1" viewBox="0 0 329 243" width="329px" zoomAndPan="magnify"><defs><filter height="300%" id="fm02rog" width="300%" x="-1" y="-1"><feGaussianBlur result="blurOut" stdDeviation="2.0"/><feColorMatrix in="blurOut" result="blurOut2" type="matrix" values="0 0 0 0 0 0 0 0 0 0 0 0 0 0 0 0 0 0 .4 0"/><feOffset dx="4.0" dy="4.0" in="blurOut2" result="blurOut3"/><feBlend in="SourceGraphic" in2="blurOut3" mode="normal"/></filter></defs><g><!--entity table--><rect fill="#FEFECE" filter="url(#fm02rog)" height="36.2969" style="stroke: #000000; stroke-width: 1.5;" width="95" x="129" y="8"/><text fill="#000000" font-family="sans-serif" font-size="14" lengthAdjust="spacingAndGlyphs" textLength="75" x="139" y="30.9951">Table LALR</text><!--entity context--><rect fill="#FFFF00" filter="url(#fm02rog)" height="36.2969" style="stroke: #000000; stroke-width: 1.5;" width="83" x="135" y="104"/><text fill="#000000" font-family="sans-serif" font-size="14" lengthAdjust="spacingAndGlyphs" textLength="63" x="145" y="126.9951">Contexte</text><!--entity compile--><rect fill="#FEFECE" filter="url(#fm02rog)" height="36.2969" style="stroke: #000000; stroke-width: 1.5;" width="101" x="126" y="200"/><text fill="#000000" font-family="sans-serif" font-size="14" lengthAdjust="spacingAndGlyphs" textLength="81" x="136" y="222.9951">Compilation</text><!--entity template--><rect fill="#FFFF00" filter="url(#fm02rog)" height="36.2969" style="stroke: #000000; stroke-width: 1.5;" width="85" x="6" y="200"/><text fill="#000000" font-family="sans-serif" font-size="14" font-style="italic" lengthAdjust="spacingAndGlyphs" textLength="65" x="16" y="222.9951">Template</text><!--entity output--><rect fill="#FEFECE" filter="url(#fm02rog)" height="36.2969" style="stroke: #000000; stroke-width: 1.5;" width="60" x="262.5" y="200"/><text fill="#000000" font-family="sans-serif" font-size="14" lengthAdjust="spacingAndGlyphs" textLength="40" x="272.5" y="222.9951">Sortie</text><path d="M176.5,44.241 C176.5,61.202 176.5,86.945 176.5,103.868 " fill="none" style="stroke: #A80036; stroke-width: 1.0;"/><path d="M176.5,140.241 C176.5,155.4791 176.5,177.8069 176.5,194.4576 " fill="none" style="stroke: #A80036; stroke-width: 1.0;"/><polygon fill="#A80036" points="176.5,199.8683,180.5,190.8683,176.5,194.8683,172.5,190.8683,176.5,199.8683" style="stroke: #A80036; stroke-width: 1.0;"/><path d="M91.5,218 C101.2076,218 110.915,218 120.623,218 " fill="none" style="stroke: #A80036; stroke-width: 1.0;"/><polygon fill="#A80036" points="125.699,218,116.699,214,120.699,218,116.699,222,125.699,218" style="stroke: #A80036; stroke-width: 1.0;"/><path d="M227.25,218 C237.234,218 247.218,218 257.203,218 " fill="none" style="stroke: #A80036; stroke-width: 1.0;"/><polygon fill="#A80036" points="262.424,218,253.424,214,257.424,218,253.424,222,262.424,218" style="stroke: #A80036; stroke-width: 1.0;"/></g></svg>